999
All DXF R10 ENTITIES (exept SHAPE) write with a text editor by Paolo Caroni for tests of LibDXF
  0
SECTION
  2
HEADER
  9
$ACADVER
  1
AC1006
  9
$INSBASE
 10
0.0
 20
0.0
 30
0.0
  9
$EXTMIN
 10
2.0
 20
3.0
 30
0.0
  9
$EXTMAX
 10
492.2214712825637
 20
309.35266076224218
 30
6.0
  9
$LIMMIN
 10
0.0
 20
0.0
  9
$LIMMAX
 10
420.0
 20
297.0
  9
$ORTHOMODE
 70
     0
  9
$REGENMODE
 70
     1
  9
$FILLMODE
 70
     1
  9
$QTEXTMODE
 70
     0
  9
$MIRRTEXT
 70
     0
  9
$DRAGMODE
 70
     2
  9
$LTSCALE
 40
1.0
  9
$OSMODE
 70
    63
  9
$ATTMODE
 70
     1
  9
$TEXTSIZE
 40
2.5
  9
$TRACEWID
 40
60.939686542771369
  9
$TEXTSTYLE
  7
STANDARD
  9
$CLAYER
  8
0
  9
$CELTYPE
  6
BYLAYER
  9
$CECOLOR
 62
   256
  9
$DIMSCALE
 40
1.0
  9
$DIMASZ
 40
2.5
  9
$DIMEXO
 40
0.625
  9
$DIMDLI
 40
3.75
  9
$DIMRND
 40
0.0
  9
$DIMDLE
 40
0.0
  9
$DIMEXE
 40
1.25
  9
$DIMTP
 40
0.0
  9
$DIMTM
 40
0.0
  9
$DIMTXT
 40
2.5
  9
$DIMCEN
 40
2.5
  9
$DIMTSZ
 40
0.0
  9
$DIMTOL
 70
     0
  9
$DIMLIM
 70
     0
  9
$DIMTIH
 70
     0
  9
$DIMTOH
 70
     0
  9
$DIMSE1
 70
     0
  9
$DIMSE2
 70
     0
  9
$DIMTAD
 70
     1
  9
$DIMZIN
 70
     8
  9
$DIMBLK
  1

  9
$DIMASO
 70
     1
  9
$DIMSHO
 70
     1
  9
$DIMPOST
  1

  9
$DIMAPOST
  1

  9
$DIMALT
 70
     0
  9
$DIMALTD
 70
     3
  9
$DIMALTF
 40
0.03937007874016
  9
$DIMLFAC
 40
1.0
  9
$DIMTOFL
 70
     1
  9
$DIMTVP
 40
0.0
  9
$DIMTIX
 70
     0
  9
$DIMSOXD
 70
     0
  9
$DIMSAH
 70
     0
  9
$DIMBLK1
  1

  9
$DIMBLK2
  1

  9
$DIMSTYLE
  2
ISO-25
  9
$DIMCLRD
 70
     0
  9
$DIMCLRE
 70
     0
  9
$DIMCLRT
 70
     0
  9
$DIMTFAC
 40
1.0
  9
$DIMGAP
 40
0.625
  9
$LUNITS
 70
     2
  9
$LUPREC
 70
     4
  9
$SKETCHINC
 40
1.0
  9
$FILLETRAD
 40
0.0
  9
$AUNITS
 70
     0
  9
$AUPREC
 70
     0
  9
$MENU
  1
.
  9
$ELEVATION
 40
0.0
  9
$PELEVATION
 40
0.0
  9
$THICKNESS
 40
0.0
  9
$LIMCHECK
 70
     0
  9
$BLIPMODE
 70
     0
  9
$CHAMFERA
 40
0.0
  9
$CHAMFERB
 40
0.0
  9
$SKPOLY
 70
     0
  9
$TDCREATE
 40
2457192.6333876848
  9
$TDUPDATE
 40
2457192.6655826392
  9
$TDINDWG
 40
0.0161581713
  9
$TDUSRTIMER
 40
0.0161581713
  9
$USRTIMER
 70
     1
  9
$ANGBASE
 50
0.0
  9
$ANGDIR
 70
     0
  9
$PDMODE
 70
     0
  9
$PDSIZE
 40
0.0
  9
$PLINEWID
 40
0.0
  9
$COORDS
 70
     0
  9
$SPLFRAME
 70
     0
  9
$SPLINETYPE
 70
     6
  9
$SPLINESEGS
 70
     8
  9
$ATTDIA
 70
     0
  9
$ATTREQ
 70
     1
  9
$HANDLING
 70
     1
  9
$HANDSEED
  5
3D9
  9
$SURFTAB1
 70
     6
  9
$SURFTAB2
 70
     6
  9
$SURFTYPE
 70
     6
  9
$SURFU
 70
     6
  9
$SURFV
 70
     6
  9
$UCSNAME
  2

  9
$UCSORG
 10
0.0
 20
0.0
 30
0.0
  9
$UCSXDIR
 10
1.0
 20
0.0
 30
0.0
  9
$UCSYDIR
 10
0.0
 20
1.0
 30
0.0
  9
$PUCSNAME
  2

  9
$PUCSORG
 10
0.0
 20
0.0
 30
0.0
  9
$PUCSXDIR
 10
1.0
 20
0.0
 30
0.0
  9
$PUCSYDIR
 10
0.0
 20
1.0
 30
0.0
  9
$USERI1
 70
     0
  9
$USERI2
 70
     0
  9
$USERI3
 70
     0
  9
$USERI4
 70
     0
  9
$USERI5
 70
     0
  9
$USERR1
 40
0.0
  9
$USERR2
 40
0.0
  9
$USERR3
 40
0.0
  9
$USERR4
 40
0.0
  9
$USERR5
 40
0.0
  9
$WORLDVIEW
 70
     1
  9
$SHADEDGE
 70
     3
  9
$SHADEDIF
 70
    70
  9
$TILEMODE
 70
     1
  9
$MAXACTVP
 70
    48
  9
$PLIMCHECK
 70
     0
  9
$PEXTMIN
 10
1.0000000000000000E+020
 20
1.0000000000000000E+020
 30
1.0000000000000000E+020
  9
$PEXTMAX
 10
-1.0000000000000000E+020
 20
-1.0000000000000000E+020
 30
-1.0000000000000000E+020
  9
$PLIMMIN
 10
0.0
 20
0.0
  9
$PLIMMAX
 10
420.0
 20
297.0
  9
$UNITMODE
 70
     0
  9
$VISRETAIN
 70
     1
  9
$PLINEGEN
 70
     0
  9
$PSLTSCALE
 70
     1
  0
ENDSEC
  0
SECTION
  2
TABLES
  0
TABLE
  2
VPORT
 70
     1
  0
VPORT
  2
*ACTIVE
 70
     0
 10
0.0
 20
0.0
 11
1.0
 21
1.0
 12
247.1059050157921
 22
156.17504127452051
 13
0.0
 23
0.0
 14
10.0
 24
10.0
 15
10.0
 25
10.0
 16
0.0
 26
0.0
 36
1.0
 17
0.0
 27
0.0
 37
0.0
 40
308.58355056699639
 41
2.21179302045728
 42
50.0
 43
0.0
 44
0.0
 50
0.0
 51
0.0
 71
     0
 72
  1000
 73
     1
 74
     3
 75
     0
 76
     0
 77
     0
 78
     0
  0
ENDTAB
  0
TABLE
  2
LTYPE
 70
     1
  0
LTYPE
  2
CONTINUOUS
 70
     0
  3
Solid line
 72
    65
 73
     0
 40
0.0
  0
ENDTAB
  0
TABLE
  2
LAYER
 70
     2
  0
LAYER
  2
0
 70
     0
 62
     7
  6
CONTINUOUS
  0
LAYER
  2
DEFPOINTS
 70
     0
 62
     7
  6
CONTINUOUS
  0
ENDTAB
  0
TABLE
  2
STYLE
 70
     2
  0
STYLE
  2
STANDARD
 70
     0
 40
0.0
 41
1.0
 50
0.0
 71
     0
 42
2.5
  3
txt
  4

  0
STYLE
  2
ANNOTATIVE
 70
     0
 40
0.0
 41
1.0
 50
0.0
 71
     0
 42
0.2
  3
txt
  4

  0
ENDTAB
  0
TABLE
  2
VIEW
 70
     0
  0
ENDTAB
  0
TABLE
  2
UCS
 70
     0
  0
ENDTAB
  0
TABLE
  2
APPID
 70
     5
  0
APPID
  2
ACAD
 70
     0
  0
APPID
  2
ACADANNOTATIVE
 70
     0
  0
APPID
  2
ACAD_NAV_VCDISPLAY
 70
     0
  0
APPID
  2
ACAD_EXEMPT_FROM_CAD_STANDARDS
 70
     0
  0
APPID
  2
ACAD_MLEADERVER
 70
     0
  0
ENDTAB
  0
TABLE
  2
DIMSTYLE
 70
     3
  0
DIMSTYLE
  2
STANDARD
 70
     0
  3

  4

  5

  6

  7

 40
1.0
 41
0.18
 42
0.0625
 43
0.38
 44
0.18
 45
0.0
 46
0.0
 47
0.0
 48
0.0
140
0.18
141
0.09
142
0.0
143
25.399999999999999
144
1.0
145
0.0
146
1.0
147
0.09
 71
     0
 72
     0
 73
     1
 74
     1
 75
     0
 76
     0
 77
     0
 78
     0
170
     0
171
     2
172
     0
173
     0
174
     0
175
     0
176
     0
177
     0
178
     0
  0
DIMSTYLE
  2
ANNOTATIVE
 70
     0
  3

  4

  5

  6

  7

 40
1.0
 41
0.18
 42
0.0625
 43
0.38
 44
0.18
 45
0.0
 46
0.0
 47
0.0
 48
0.0
140
0.18
141
0.09
142
0.0
143
25.399999999999999
144
1.0
145
0.0
146
1.0
147
0.09
 71
     0
 72
     0
 73
     1
 74
     1
 75
     0
 76
     0
 77
     0
 78
     0
170
     0
171
     2
172
     0
173
     0
174
     0
175
     0
176
     0
177
     0
178
     0
  0
DIMSTYLE
  2
ISO-25
 70
     0
  3

  4

  5

  6

  7

 40
1.0
 41
2.5
 42
0.625
 43
3.75
 44
1.25
 45
0.0
 46
0.0
 47
0.0
 48
0.0
140
2.5
141
2.5
142
0.0
143
0.03937007874016
144
1.0
145
0.0
146
1.0
147
0.625
 71
     0
 72
     0
 73
     0
 74
     0
 75
     0
 76
     0
 77
     1
 78
     8
170
     0
171
     3
172
     1
173
     0
174
     0
175
     0
176
     0
177
     0
178
     0
  0
ENDTAB
  0
ENDSEC
  0
SECTION
  2
BLOCKS
  0
BLOCK
  8
0
  2
$MODEL_SPACE
 70
     0
 10
0.0
 20
0.0
 30
0.0
  3
$MODEL_SPACE
  1

  0
ENDBLK
  5
2C6
  8
0
  0
BLOCK
 67
     1
  8
0
  2
$PAPER_SPACE
 70
     0
 10
0.0
 20
0.0
 30
0.0
  3
$PAPER_SPACE
  1

  0
ENDBLK
  5
2C2
 67
     1
  8
0
  0
BLOCK
  8
0
  2
*D2
 70
     1
 10
0.0
 20
0.0
 30
0.0
  3
*D2
  1

  0
LINE
  5
91
  8
0
 62
     0
 10
275.94367730156188
 20
185.3799336720306
 30
0.0
 11
275.94367730156188
 21
229.9144962643411
 31
0.0
  0
LINE
  5
92
  8
0
 62
     0
 10
317.0243861192767
 20
205.37127900076709
 30
0.0
 11
317.0243861192767
 21
229.9144962643411
 31
0.0
  0
LINE
  5
93
  8
0
 62
     0
 10
278.44367730156188
 20
228.6644962643411
 30
0.0
 11
314.5243861192767
 21
228.6644962643411
 31
0.0
  0
SOLID
  5
94
  8
0
 62
     0
 10
278.44367730156188
 20
229.0811629310077
 30
0.0
 11
278.44367730156188
 21
228.24782959767441
 31
0.0
 12
275.94367730156188
 22
228.6644962643411
 32
0.0
 13
275.94367730156188
 23
228.6644962643411
 33
0.0
  0
SOLID
  5
95
  8
0
 62
     0
 10
314.5243861192767
 20
229.0811629310077
 30
0.0
 11
314.5243861192767
 21
228.24782959767441
 31
0.0
 12
317.0243861192767
 22
228.6644962643411
 32
0.0
 13
317.0243861192767
 23
228.6644962643411
 33
0.0
  0
INSERT
  5
96
  8
0
  2
*U3
 10
0.0
 20
0.0
 30
0.0
  0
POINT
  5
97
  8
DEFPOINTS
 62
     0
 10
275.94367730156188
 20
184.75493367203049
 30
0.0
  0
POINT
  5
98
  8
DEFPOINTS
 62
     0
 10
317.0243861192767
 20
204.74627900076709
 30
0.0
  0
POINT
  5
99
  8
DEFPOINTS
 62
     0
 10
317.0243861192767
 20
228.6644962643411
 30
0.0
  0
ENDBLK
  5
86
  8
0
  0
BLOCK
  8
0
  2
*U3
 70
     1
 10
0.0
 20
0.0
 30
0.0
  3
*U3
  1

  0
TEXT
  5
148
  8
0
 62
     0
 10
291.90069837708597
 20
229.70616293100781
 30
0.0
 40
2.5
  1
41,08
  0
ENDBLK
  5
14A
  8
0
  0
BLOCK
  8
0
  2
*D4
 70
     1
 10
0.0
 20
0.0
 30
0.0
  3
*D4
  1

  0
LINE
  5
A9
  8
0
 62
     0
 10
316.75173354068647
 20
205.93367172065959
 30
0.0
 11
293.25883391116162
 21
254.391807672011
 31
0.0
  0
LINE
  5
AA
  8
0
 62
     0
 10
275.66138030635568
 20
186.01273325854061
 30
0.0
 11
252.1684806768308
 21
234.4708692098921
 31
0.0
  0
LINE
  5
AB
  8
0
 62
     0
 10
291.5545681887719
 20
252.1764119178651
 30
0.0
 11
254.96335671358131
 21
234.436694084468
 31
0.0
  0
SOLID
  5
AC
  8
0
 62
     0
 10
291.3727998030451
 20
252.5513403977935
 30
0.0
 11
291.73633657449869
 21
251.80148343793681
 31
0.0
 12
293.8041390683419
 22
253.267022232226
 32
0.0
 13
293.8041390683419
 23
253.267022232226
 33
0.0
  0
SOLID
  5
AD
  8
0
 62
     0
 10
254.78158832785439
 20
234.81162256439629
 30
0.0
 11
255.1451250993081
 21
234.0617656045396
 31
0.0
 12
252.71378583401119
 22
233.34608377010721
 32
0.0
 13
252.71378583401119
 23
233.34608377010721
 33
0.0
  0
INSERT
  5
AE
  8
0
  2
*U5
 10
0.0
 20
0.0
 30
0.0
  0
POINT
  5
AF
  8
DEFPOINTS
 62
     0
 10
317.0243861192767
 20
205.37127900076709
 30
0.0
  0
POINT
  5
B0
  8
DEFPOINTS
 62
     0
 10
275.93403288494591
 20
185.45034053864811
 30
0.0
  0
POINT
  5
B1
  8
DEFPOINTS
 62
     0
 10
252.71378583401119
 20
233.34608377010721
 30
0.0
  0
ENDBLK
  5
9E
  8
0
  0
BLOCK
  8
0
  2
*U5
 70
     1
 10
0.0
 20
0.0
 30
0.0
  3
*U5
  1

  0
TEXT
  5
14C
  8
0
 62
     0
 10
268.11793548775518
 20
241.97176937940239
 30
0.0
 40
2.5
  1
45,66
 50
25.86448598425644
  0
ENDBLK
  5
14E
  8
0
  0
BLOCK
  8
0
  2
*U7
 70
     1
 10
0.0
 20
0.0
 30
0.0
  3
*U7
  1

  0
TEXT
  5
15A
  8
0
 62
     0
 10
259.6862672476596
 20
258.46450039440367
 30
0.0
 40
2.5
  1
57,46
 50
25.949214836627501
  0
ENDBLK
  5
15C
  8
0
  0
BLOCK
  8
0
  2
*D9
 70
     1
 10
0.0
 20
0.0
 30
0.0
  3
*D9
  1

  0
LINE
  5
150
  8
0
 10
317.42353802133141
 20
205.22721845546599
 30
0.0
 11
354.61981879572232
 21
250.04514090649761
 31
0.0
  0
LINE
  5
151
  8
0
 10
275.31891768274249
 20
184.737601081554
 30
0.0
 11
217.0986409447718
 21
183.1224067192185
 31
0.0
  0
ARC
  5
152
  8
0
 10
301.00987438847193
 20
185.45034053864811
 30
0.0
 40
82.693518951201867
 50
52.041529668584239
 51
179.85690000467059
  0
SOLID
  5
153
  8
0
 10
352.13506681661642
 20
250.97521962457461
 30
0.0
 11
351.61261829824588
 21
250.32599547984731
 31
0.0
 12
353.82151499161318
 22
249.0832619970995
 32
0.0
 13
353.82151499161318
 23
249.0832619970995
 33
0.0
  0
SOLID
  5
154
  8
0
 10
218.73324684338161
 20
185.6621306568984
 30
0.0
 11
217.8999798595259
 21
185.65161504657951
 31
0.0
 12
218.3481601824106
 22
183.1570719001717
 32
0.0
 13
218.3481601824106
 23
183.1570719001717
 33
0.0
  0
TEXT
  5
155
  8
0
 10
259.6862672476596
 20
258.46450039440367
 30
0.0
 40
2.5
  1
57,46
 50
25.949214836627501
  0
ARC
  5
156
  8
0
  6
CONTINUOUS
 10
257.11834913654468
 20
257.07584420259371
 30
0.0
 40
2.3333333333333122
 50
25.949214836628201
 51
205.94921483662679
  0
ENDBLK
  5
158
  8
0
  0
BLOCK
  8
0
  2
*D11
 70
     1
 10
0.0
 20
0.0
 30
0.0
  3
*D11
  1

  0
LINE
  5
38C
  8
0
 62
     0
 10
316.98447092907122
 20
204.69818505529719
 30
0.0
 11
311.25647621450781
 21
197.7965051676141
 31
0.0
  0
LINE
  5
38D
  8
0
 62
     0
 10
276.00615326344382
 20
184.75666693107809
 30
0.0
 11
284.97171192932831
 21
185.00539676583131
 31
0.0
  0
ARC
  5
38E
  8
0
 62
     0
 10
301.00987438847193
 20
185.45034053864811
 30
0.0
 40
16.224333268380221
 50
50.94495931312251
 51
114.6601121956008
  0
ARC
  5
38F
  8
0
 62
     0
 10
301.00987438847193
 20
185.45034053864811
 30
0.0
 40
16.224333268380221
 50
117.25259188170899
 51
180.9534703601326
  0
SOLID
  5
390
  8
0
 62
     0
 10
311.25131678360202
 20
198.07239238013511
 30
0.0
 11
311.21325490691498
 21
198.02601034112149
 31
0.0
 12
311.37143196229948
 22
197.93501573056739
 32
0.0
 13
311.37143196229948
 23
197.93501573056739
 33
0.0
  0
SOLID
  5
391
  8
0
 62
     0
 10
284.81778018141472
 20
185.18102627098619
 30
0.0
 11
284.75779495062659
 21
185.1796950732903
 31
0.0
 12
284.79178115910833
 22
185.00040497977409
 32
0.0
 13
284.79178115910833
 23
185.00040497977409
 33
0.0
  0
TEXT
  8
0
  40
0.18
  5
3D8
  62
0
  72
0
  71
0
 10
293.551
 20
199.720
 30
0.000000
  1
131%%d
  0
POINT
  5
393
  8
DEFPOINTS
 62
     0
 10
301.00987438847193
 20
185.45034053864811
 30
0.0
  0
POINT
  5
394
  8
DEFPOINTS
 62
     0
 10
317.0243861192767
 20
204.74627900076709
 30
0.0
  0
POINT
  5
395
  8
DEFPOINTS
 62
     0
 10
275.94367730156188
 20
184.7549336720304
 30
0.0
  0
POINT
  5
396
  8
DEFPOINTS
 62
     0
 10
299.85856407660708
 20
201.6337726396971
 30
0.0
  0
ENDBLK
  5
31B
  8
0
  0
ENDSEC
  0
SECTION
  2
ENTITIES
  0
3DLINE
  5
1A
  8
0
 10
2.0
 20
3.0
 30
4.0
 11
51.144993773091059
 21
83.294431243462896
 31
6.0
  0
3DFACE
  5
78
  8
0
 10
120.9043815975956
 20
114.4076155160157
 30
0.0
 11
196.2785495745695
 21
194.0160104849061
 31
0.0
 12
246.64707129942781
 22
138.3258327795898
 32
0.0
 13
157.3411824322682
 23
101.199048103717
 33
0.0
  0
ARC
  5
80
  8
0
 10
301.00987438847193
 20
185.45034053864811
 30
0.0
 40
25.07584150352605
 50
50.309291083487167
 51
181.5891385897678
  0
CIRCLE
  5
81
  8
0
 10
363.46344759605381
 20
157.26683358570261
 30
0.0
 40
30.845441532483338
  0
DIMENSION
  5
82
  8
0
  2
*D2
 10
317.0243861192767
 20
228.6644962643411
 30
0.0
 11
296.48403171041917
 21
230.7478295976745
 31
0.0
 13
275.94367730156188
 23
184.75493367203049
 33
0.0
 14
317.0243861192767
 24
204.74627900076709
 34
0.0
  0
DIMENSION
  5
9B
  8
0
  2
*D4
 10
252.71378583401119
 20
233.34608377010721
 30
0.0
 11
272.35012052254262
 21
245.18119540080829
 31
0.0
 70
     1
 13
317.0243861192767
 23
205.37127900076709
 33
0.0
 14
275.93403288494591
 24
185.45034053864811
 34
0.0
  0
INSERT
  5
B3
  8
0
  2
*D9
 10
0.0
 20
0.0
 30
0.0
  0
DIMENSION
  5
CF
  8
0
  2
*D11
 10
299.85856407660708
 20
201.6337726396971
 30
0.0
 11
293.91052291881113
 21
200.03897305556669
 31
0.0
 70
     5
 13
317.0243861192767
 23
204.74627900076709
 33
0.0
 14
275.94367730156188
 24
184.75493367203049
 34
0.0
 15
301.00987438847193
 25
185.45034053864811
 35
0.0
1001
ACAD
1000
DSTYLE
1002
{
1070
   271
1070
     0
1070
   271
1070
     0
1070
   271
1070
     0
1070
   271
1070
     0
1002
}
  0
LINE
  5
E9
  8
0
 10
472.4877014860424
 20
256.47194950210149
 30
0.0
 11
468.47894737540457
 21
197.1814550589132
 31
0.0
  0
POINT
  5
EA
  8
0
 10
421.57652213968532
 20
214.40774736335311
 30
0.0
  0
POLYLINE
  5
EB
  8
0
 66
     1
 10
0.0
 20
0.0
 30
0.0
  0
VERTEX
  5
397
  8
0
 10
386.7003607653499
 20
234.83893125931661
 30
0.0
  0
VERTEX
  5
398
  8
0
 10
398.7266230972628
 20
268.89090441925578
 30
0.0
  0
VERTEX
  5
399
  8
0
 10
371.8679699442024
 20
285.71658527475518
 30
0.0
  0
VERTEX
  5
39A
  8
0
 10
395.51962042054078
 20
298.13554019190917
 30
0.0
  0
VERTEX
  5
39B
  8
0
 10
419.17127089687921
 20
282.11108223429108
 30
0.0
  0
VERTEX
  5
39C
  8
0
 10
442.02116993930201
 20
309.35266076224218
 30
0.0
  0
SEQEND
  5
39D
  8
0
  0
SOLID
  5
EC
  8
0
 10
285.67975197708159
 20
91.42003253863173
 30
0.0
 11
318.15066210861119
 21
111.0499935367142
 31
0.0
 12
336.99180704039622
 22
63.777842561739931
 32
0.0
 13
300.9130185151871
 23
53.762556338228471
 33
0.0
  0
TEXT
  5
EE
  8
0
 10
373.47147128256353
 20
87.413918049227178
 30
0.0
 40
2.5
  1
All DXF R10 ENTITIES (exept SHAPE) write with a text
  0
TEXT
  5
EF
  8
0
 10
373.47147128256353
 20
83.247251382560506
 30
0.0
 40
2.5
  1
editor by Paolo Caroni for tests of LibDXF
  0
TRACE
  5
2E7
  8
0
 10
107.7950499022119
 20
241.9186273617243
 30
0.0
 11
47.196547523136672
 21
235.47914715409539
 31
0.0
 12
106.90328957747511
 22
250.3105065845393
 32
0.0
 13
56.99562268077058
 23
143.26529446624639
 33
0.0
  0
ENDSEC
  0
EOF
