  0
SECTION
  2
HEADER
  9
$ACADVER
  1
AC1009
  9
$INSBASE
 10
0.0
 20
0.0
 30
0.0
  9
$EXTMIN
 10
0.0
 20
0.0
 30
0.0
  9
$EXTMAX
 10
0.0
 20
0.0
 30
0.0
  0
ENDSEC
  0
SECTION
  2
TABLES
  0
TABLE
  2
VPORT
 70
1
  0
VPORT
  2
*ACTIVE
 70
0
 10
0.0
 20
0.0
 11
1.0
 21
1.0
 12
-5.0
 22
1.0
 13
0.0
 23
0.0
 14
0.1
 24
0.1
 15
0.1
 25
0.1
 16
0.0
 26
0.0
 36
1.0
 17
0.0
 27
0.0
 37
0.0
 40
10.0
 41
1.0
 42
50.0
 43
0.0
 44
0.0
 50
0.0
 51
0.0
 71
0
 72
100
 73
1
 74
1
 75
0
 76
0
 77
0
 78
0
  0
ENDTAB
  0
TABLE
  2
LTYPE
 70
8
  0
LTYPE
  2
CONTINUOUS
 70
0
  3
Solid line
 72
65
 73
0
 40
0.0
  0
LTYPE
  2
DOT
 70
0
  3
. . . . . . .
 72
65
 73
2
 40
0.25
 49
0.0
 49
-0.25
  0
LTYPE
  2
DASHED
 70
0
  3
__ __ __ __ __
 72
65
 73
2
 40
0.8
 49
0.5
 49
-0.3
  0
LTYPE
  2
DASHDOT
 70
0
  3
__ . __ . __ .
 72
65
 73
4
 40
1.0
 49
0.5
 49
-0.25
 49
0.0
 49
-0.25
  0
LTYPE
  2
DIVIDE
 70
0
  3
____ . . ____ . . 
 72
65
 73
6
 40
1.25
 49
0.5
 49
-0.25
 49
0.0
 49
-0.25
 49
0.0
 49
-0.25
  0
LTYPE
  2
BORDER
 70
0
  3
__ __ . __ __ . 
 72
65
 73
6
 40
1.75
 49
0.5
 49
-0.25
 49
0.5
 49
-0.25
 49
0.0
 49
-0.25
  0
LTYPE
  2
HIDDEN
 70
0
  3
__ __ __ __ __
 72
65
 73
2
 40
0.4
 49
0.25
 49
-0.25
  0
LTYPE
  2
CENTER
 70
0
  3
____ _ ____ _ __
 72
65
 73
4
 40
2.0
 49
1.25
 49
-0.25
 49
0.25
 49
-0.25
  0
ENDTAB
  0
TABLE
  2
LAYER
 70
2
  0
LAYER
  2
PYDXF
 70
64
 62
7
  6
continuous
  0
LAYER
  2
BF_
 70
64
 62
7
  6
continuous
  0
ENDTAB
  0
TABLE
  2
STYLE
 70
1
  0
STYLE
  2
STANDARD
 70
0
 40
0
 41
1.0
 50
0.0
 71
0
 42
1
 3
ARIAL.TTF
 4

  0
ENDTAB
  0
TABLE
  2
VIEW
 70
1
  0
VIEW
  2
BF_TOPVIEW
 70
0
 40
120.0
 10
0.0
 20
0.0
 41
200.0
 11
0.0
 21
0.0
 31
1.0
 12
0.0
 22
0.0
 32
0.0
 42
50.0
 43
0.0
 44
0.0
 50
0.0
 71
0
  0
ENDTAB
  0
ENDSEC
  0
SECTION
  2
BLOCKS
  0
ENDSEC
  0
SECTION
  2
ENTITIES
  0
POLYLINE
  8
BF_
 70
64
 66
1
 10
0.0
 20
0.0
 30
0.0
 71
507
 72
500
  0
VERTEX
  8
BF_
 10
0.4375
 20
0.1640625
 30
0.765625
 70
192
  0
VERTEX
  8
BF_
 10
-0.4375
 20
0.1640625
 30
0.765625
 70
192
  0
VERTEX
  8
BF_
 10
0.5
 20
0.09375
 30
0.6875
 70
192
  0
VERTEX
  8
BF_
 10
-0.5
 20
0.09375
 30
0.6875
 70
192
  0
VERTEX
  8
BF_
 10
0.546875
 20
0.0546875
 30
0.578125
 70
192
  0
VERTEX
  8
BF_
 10
-0.546875
 20
0.0546875
 30
0.578125
 70
192
  0
VERTEX
  8
BF_
 10
0.3515625
 20
-0.0234375
 30
0.6171875
 70
192
  0
VERTEX
  8
BF_
 10
-0.3515625
 20
-0.0234375
 30
0.6171875
 70
192
  0
VERTEX
  8
BF_
 10
0.3515625
 20
0.03125
 30
0.71875
 70
192
  0
VERTEX
  8
BF_
 10
-0.3515625
 20
0.03125
 30
0.71875
 70
192
  0
VERTEX
  8
BF_
 10
0.3515625
 20
0.1328125
 30
0.78125
 70
192
  0
VERTEX
  8
BF_
 10
-0.3515625
 20
0.1328125
 30
0.78125
 70
192
  0
VERTEX
  8
BF_
 10
0.2734375
 20
0.1640625
 30
0.796875
 70
192
  0
VERTEX
  8
BF_
 10
-0.2734375
 20
0.1640625
 30
0.796875
 70
192
  0
VERTEX
  8
BF_
 10
0.203125
 20
0.09375
 30
0.7421875
 70
192
  0
VERTEX
  8
BF_
 10
-0.203125
 20
0.09375
 30
0.7421875
 70
192
  0
VERTEX
  8
BF_
 10
0.15625
 20
0.0546875
 30
0.6484375
 70
192
  0
VERTEX
  8
BF_
 10
-0.15625
 20
0.0546875
 30
0.6484375
 70
192
  0
VERTEX
  8
BF_
 10
0.078125
 20
0.2421875
 30
0.65625
 70
192
  0
VERTEX
  8
BF_
 10
-0.078125
 20
0.2421875
 30
0.65625
 70
192
  0
VERTEX
  8
BF_
 10
0.140625
 20
0.2421875
 30
0.7421875
 70
192
  0
VERTEX
  8
BF_
 10
-0.140625
 20
0.2421875
 30
0.7421875
 70
192
  0
VERTEX
  8
BF_
 10
0.2421875
 20
0.2421875
 30
0.796875
 70
192
  0
VERTEX
  8
BF_
 10
-0.2421875
 20
0.2421875
 30
0.796875
 70
192
  0
VERTEX
  8
BF_
 10
0.2734375
 20
0.328125
 30
0.796875
 70
192
  0
VERTEX
  8
BF_
 10
-0.2734375
 20
0.328125
 30
0.796875
 70
192
  0
VERTEX
  8
BF_
 10
0.203125
 20
0.390625
 30
0.7421875
 70
192
  0
VERTEX
  8
BF_
 10
-0.203125
 20
0.390625
 30
0.7421875
 70
192
  0
VERTEX
  8
BF_
 10
0.15625
 20
0.4375
 30
0.6484375
 70
192
  0
VERTEX
  8
BF_
 10
-0.15625
 20
0.4375
 30
0.6484375
 70
192
  0
VERTEX
  8
BF_
 10
0.3515625
 20
0.515625
 30
0.6171875
 70
192
  0
VERTEX
  8
BF_
 10
-0.3515625
 20
0.515625
 30
0.6171875
 70
192
  0
VERTEX
  8
BF_
 10
0.3515625
 20
0.453125
 30
0.71875
 70
192
  0
VERTEX
  8
BF_
 10
-0.3515625
 20
0.453125
 30
0.71875
 70
192
  0
VERTEX
  8
BF_
 10
0.3515625
 20
0.359375
 30
0.78125
 70
192
  0
VERTEX
  8
BF_
 10
-0.3515625
 20
0.359375
 30
0.78125
 70
192
  0
VERTEX
  8
BF_
 10
0.4375
 20
0.328125
 30
0.765625
 70
192
  0
VERTEX
  8
BF_
 10
-0.4375
 20
0.328125
 30
0.765625
 70
192
  0
VERTEX
  8
BF_
 10
0.5
 20
0.390625
 30
0.6875
 70
192
  0
VERTEX
  8
BF_
 10
-0.5
 20
0.390625
 30
0.6875
 70
192
  0
VERTEX
  8
BF_
 10
0.546875
 20
0.4375
 30
0.578125
 70
192
  0
VERTEX
  8
BF_
 10
-0.546875
 20
0.4375
 30
0.578125
 70
192
  0
VERTEX
  8
BF_
 10
0.625
 20
0.2421875
 30
0.5625
 70
192
  0
VERTEX
  8
BF_
 10
-0.625
 20
0.2421875
 30
0.5625
 70
192
  0
VERTEX
  8
BF_
 10
0.5625
 20
0.2421875
 30
0.671875
 70
192
  0
VERTEX
  8
BF_
 10
-0.5625
 20
0.2421875
 30
0.671875
 70
192
  0
VERTEX
  8
BF_
 10
0.46875
 20
0.2421875
 30
0.7578125
 70
192
  0
VERTEX
  8
BF_
 10
-0.46875
 20
0.2421875
 30
0.7578125
 70
192
  0
VERTEX
  8
BF_
 10
0.4765625
 20
0.2421875
 30
0.7734375
 70
192
  0
VERTEX
  8
BF_
 10
-0.4765625
 20
0.2421875
 30
0.7734375
 70
192
  0
VERTEX
  8
BF_
 10
0.4453125
 20
0.3359375
 30
0.78125
 70
192
  0
VERTEX
  8
BF_
 10
-0.4453125
 20
0.3359375
 30
0.78125
 70
192
  0
VERTEX
  8
BF_
 10
0.3515625
 20
0.375
 30
0.8046875
 70
192
  0
VERTEX
  8
BF_
 10
-0.3515625
 20
0.375
 30
0.8046875
 70
192
  0
VERTEX
  8
BF_
 10
0.265625
 20
0.3359375
 30
0.8203125
 70
192
  0
VERTEX
  8
BF_
 10
-0.265625
 20
0.3359375
 30
0.8203125
 70
192
  0
VERTEX
  8
BF_
 10
0.2265625
 20
0.2421875
 30
0.8203125
 70
192
  0
VERTEX
  8
BF_
 10
-0.2265625
 20
0.2421875
 30
0.8203125
 70
192
  0
VERTEX
  8
BF_
 10
0.265625
 20
0.15625
 30
0.8203125
 70
192
  0
VERTEX
  8
BF_
 10
-0.265625
 20
0.15625
 30
0.8203125
 70
192
  0
VERTEX
  8
BF_
 10
0.3515625
 20
0.2421875
 30
0.828125
 70
192
  0
VERTEX
  8
BF_
 10
-0.3515625
 20
0.2421875
 30
0.828125
 70
192
  0
VERTEX
  8
BF_
 10
0.3515625
 20
0.1171875
 30
0.8046875
 70
192
  0
VERTEX
  8
BF_
 10
-0.3515625
 20
0.1171875
 30
0.8046875
 70
192
  0
VERTEX
  8
BF_
 10
0.4453125
 20
0.15625
 30
0.78125
 70
192
  0
VERTEX
  8
BF_
 10
-0.4453125
 20
0.15625
 30
0.78125
 70
192
  0
VERTEX
  8
BF_
 10
0.0
 20
0.4296875
 30
0.7421875
 70
192
  0
VERTEX
  8
BF_
 10
0.0
 20
0.3515625
 30
0.8203125
 70
192
  0
VERTEX
  8
BF_
 10
0.0
 20
-0.6796875
 30
0.734375
 70
192
  0
VERTEX
  8
BF_
 10
0.0
 20
-0.3203125
 30
0.78125
 70
192
  0
VERTEX
  8
BF_
 10
0.0
 20
-0.1875
 30
0.796875
 70
192
  0
VERTEX
  8
BF_
 10
0.0
 20
-0.7734375
 30
0.71875
 70
192
  0
VERTEX
  8
BF_
 10
0.0
 20
0.40625
 30
0.6015625
 70
192
  0
VERTEX
  8
BF_
 10
0.0
 20
0.5703125
 30
0.5703125
 70
192
  0
VERTEX
  8
BF_
 10
0.0
 20
0.8984375
 30
-0.546875
 70
192
  0
VERTEX
  8
BF_
 10
0.0
 20
0.5625
 30
-0.8515625
 70
192
  0
VERTEX
  8
BF_
 10
0.0
 20
0.0703125
 30
-0.828125
 70
192
  0
VERTEX
  8
BF_
 10
0.0
 20
-0.3828125
 30
-0.3515625
 70
192
  0
VERTEX
  8
BF_
 10
0.203125
 20
-0.1875
 30
0.5625
 70
192
  0
VERTEX
  8
BF_
 10
-0.203125
 20
-0.1875
 30
0.5625
 70
192
  0
VERTEX
  8
BF_
 10
0.3125
 20
-0.4375
 30
0.5703125
 70
192
  0
VERTEX
  8
BF_
 10
-0.3125
 20
-0.4375
 30
0.5703125
 70
192
  0
VERTEX
  8
BF_
 10
0.3515625
 20
-0.6953125
 30
0.5703125
 70
192
  0
VERTEX
  8
BF_
 10
-0.3515625
 20
-0.6953125
 30
0.5703125
 70
192
  0
VERTEX
  8
BF_
 10
0.3671875
 20
-0.890625
 30
0.53125
 70
192
  0
VERTEX
  8
BF_
 10
-0.3671875
 20
-0.890625
 30
0.53125
 70
192
  0
VERTEX
  8
BF_
 10
0.328125
 20
-0.9453125
 30
0.5234375
 70
192
  0
VERTEX
  8
BF_
 10
-0.328125
 20
-0.9453125
 30
0.5234375
 70
192
  0
VERTEX
  8
BF_
 10
0.1796875
 20
-0.96875
 30
0.5546875
 70
192
  0
VERTEX
  8
BF_
 10
-0.1796875
 20
-0.96875
 30
0.5546875
 70
192
  0
VERTEX
  8
BF_
 10
0.0
 20
-0.984375
 30
0.578125
 70
192
  0
VERTEX
  8
BF_
 10
0.4375
 20
-0.140625
 30
0.53125
 70
192
  0
VERTEX
  8
BF_
 10
-0.4375
 20
-0.140625
 30
0.53125
 70
192
  0
VERTEX
  8
BF_
 10
0.6328125
 20
-0.0390625
 30
0.5390625
 70
192
  0
VERTEX
  8
BF_
 10
-0.6328125
 20
-0.0390625
 30
0.5390625
 70
192
  0
VERTEX
  8
BF_
 10
0.828125
 20
0.1484375
 30
0.4453125
 70
192
  0
VERTEX
  8
BF_
 10
-0.828125
 20
0.1484375
 30
0.4453125
 70
192
  0
VERTEX
  8
BF_
 10
0.859375
 20
0.4296875
 30
0.59375
 70
192
  0
VERTEX
  8
BF_
 10
-0.859375
 20
0.4296875
 30
0.59375
 70
192
  0
VERTEX
  8
BF_
 10
0.7109375
 20
0.484375
 30
0.625
 70
192
  0
VERTEX
  8
BF_
 10
-0.7109375
 20
0.484375
 30
0.625
 70
192
  0
VERTEX
  8
BF_
 10
0.4921875
 20
0.6015625
 30
0.6875
 70
192
  0
VERTEX
  8
BF_
 10
-0.4921875
 20
0.6015625
 30
0.6875
 70
192
  0
VERTEX
  8
BF_
 10
0.3203125
 20
0.7578125
 30
0.734375
 70
192
  0
VERTEX
  8
BF_
 10
-0.3203125
 20
0.7578125
 30
0.734375
 70
192
  0
VERTEX
  8
BF_
 10
0.15625
 20
0.71875
 30
0.7578125
 70
192
  0
VERTEX
  8
BF_
 10
-0.15625
 20
0.71875
 30
0.7578125
 70
192
  0
VERTEX
  8
BF_
 10
0.0625
 20
0.4921875
 30
0.75
 70
192
  0
VERTEX
  8
BF_
 10
-0.0625
 20
0.4921875
 30
0.75
 70
192
  0
VERTEX
  8
BF_
 10
0.1640625
 20
0.4140625
 30
0.7734375
 70
192
  0
VERTEX
  8
BF_
 10
-0.1640625
 20
0.4140625
 30
0.7734375
 70
192
  0
VERTEX
  8
BF_
 10
0.125
 20
0.3046875
 30
0.765625
 70
192
  0
VERTEX
  8
BF_
 10
-0.125
 20
0.3046875
 30
0.765625
 70
192
  0
VERTEX
  8
BF_
 10
0.203125
 20
0.09375
 30
0.7421875
 70
192
  0
VERTEX
  8
BF_
 10
-0.203125
 20
0.09375
 30
0.7421875
 70
192
  0
VERTEX
  8
BF_
 10
0.375
 20
0.015625
 30
0.703125
 70
192
  0
VERTEX
  8
BF_
 10
-0.375
 20
0.015625
 30
0.703125
 70
192
  0
VERTEX
  8
BF_
 10
0.4921875
 20
0.0625
 30
0.671875
 70
192
  0
VERTEX
  8
BF_
 10
-0.4921875
 20
0.0625
 30
0.671875
 70
192
  0
VERTEX
  8
BF_
 10
0.625
 20
0.1875
 30
0.6484375
 70
192
  0
VERTEX
  8
BF_
 10
-0.625
 20
0.1875
 30
0.6484375
 70
192
  0
VERTEX
  8
BF_
 10
0.640625
 20
0.296875
 30
0.6484375
 70
192
  0
VERTEX
  8
BF_
 10
-0.640625
 20
0.296875
 30
0.6484375
 70
192
  0
VERTEX
  8
BF_
 10
0.6015625
 20
0.375
 30
0.6640625
 70
192
  0
VERTEX
  8
BF_
 10
-0.6015625
 20
0.375
 30
0.6640625
 70
192
  0
VERTEX
  8
BF_
 10
0.4296875
 20
0.4375
 30
0.71875
 70
192
  0
VERTEX
  8
BF_
 10
-0.4296875
 20
0.4375
 30
0.71875
 70
192
  0
VERTEX
  8
BF_
 10
0.25
 20
0.46875
 30
0.7578125
 70
192
  0
VERTEX
  8
BF_
 10
-0.25
 20
0.46875
 30
0.7578125
 70
192
  0
VERTEX
  8
BF_
 10
0.0
 20
-0.765625
 30
0.734375
 70
192
  0
VERTEX
  8
BF_
 10
0.109375
 20
-0.71875
 30
0.734375
 70
192
  0
VERTEX
  8
BF_
 10
-0.109375
 20
-0.71875
 30
0.734375
 70
192
  0
VERTEX
  8
BF_
 10
0.1171875
 20
-0.8359375
 30
0.7109375
 70
192
  0
VERTEX
  8
BF_
 10
-0.1171875
 20
-0.8359375
 30
0.7109375
 70
192
  0
VERTEX
  8
BF_
 10
0.0625
 20
-0.8828125
 30
0.6953125
 70
192
  0
VERTEX
  8
BF_
 10
-0.0625
 20
-0.8828125
 30
0.6953125
 70
192
  0
VERTEX
  8
BF_
 10
0.0
 20
-0.890625
 30
0.6875
 70
192
  0
VERTEX
  8
BF_
 10
0.0
 20
-0.1953125
 30
0.75
 70
192
  0
VERTEX
  8
BF_
 10
0.0
 20
-0.140625
 30
0.7421875
 70
192
  0
VERTEX
  8
BF_
 10
0.1015625
 20
-0.1484375
 30
0.7421875
 70
192
  0
VERTEX
  8
BF_
 10
-0.1015625
 20
-0.1484375
 30
0.7421875
 70
192
  0
VERTEX
  8
BF_
 10
0.125
 20
-0.2265625
 30
0.75
 70
192
  0
VERTEX
  8
BF_
 10
-0.125
 20
-0.2265625
 30
0.75
 70
192
  0
VERTEX
  8
BF_
 10
0.0859375
 20
-0.2890625
 30
0.7421875
 70
192
  0
VERTEX
  8
BF_
 10
-0.0859375
 20
-0.2890625
 30
0.7421875
 70
192
  0
VERTEX
  8
BF_
 10
0.3984375
 20
-0.046875
 30
0.671875
 70
192
  0
VERTEX
  8
BF_
 10
-0.3984375
 20
-0.046875
 30
0.671875
 70
192
  0
VERTEX
  8
BF_
 10
0.6171875
 20
0.0546875
 30
0.625
 70
192
  0
VERTEX
  8
BF_
 10
-0.6171875
 20
0.0546875
 30
0.625
 70
192
  0
VERTEX
  8
BF_
 10
0.7265625
 20
0.203125
 30
0.6015625
 70
192
  0
VERTEX
  8
BF_
 10
-0.7265625
 20
0.203125
 30
0.6015625
 70
192
  0
VERTEX
  8
BF_
 10
0.7421875
 20
0.375
 30
0.65625
 70
192
  0
VERTEX
  8
BF_
 10
-0.7421875
 20
0.375
 30
0.65625
 70
192
  0
VERTEX
  8
BF_
 10
0.6875
 20
0.4140625
 30
0.7265625
 70
192
  0
VERTEX
  8
BF_
 10
-0.6875
 20
0.4140625
 30
0.7265625
 70
192
  0
VERTEX
  8
BF_
 10
0.4375
 20
0.546875
 30
0.796875
 70
192
  0
VERTEX
  8
BF_
 10
-0.4375
 20
0.546875
 30
0.796875
 70
192
  0
VERTEX
  8
BF_
 10
0.3125
 20
0.640625
 30
0.8359375
 70
192
  0
VERTEX
  8
BF_
 10
-0.3125
 20
0.640625
 30
0.8359375
 70
192
  0
VERTEX
  8
BF_
 10
0.203125
 20
0.6171875
 30
0.8515625
 70
192
  0
VERTEX
  8
BF_
 10
-0.203125
 20
0.6171875
 30
0.8515625
 70
192
  0
VERTEX
  8
BF_
 10
0.1015625
 20
0.4296875
 30
0.84375
 70
192
  0
VERTEX
  8
BF_
 10
-0.1015625
 20
0.4296875
 30
0.84375
 70
192
  0
VERTEX
  8
BF_
 10
0.125
 20
-0.1015625
 30
0.8125
 70
192
  0
VERTEX
  8
BF_
 10
-0.125
 20
-0.1015625
 30
0.8125
 70
192
  0
VERTEX
  8
BF_
 10
0.2109375
 20
-0.4453125
 30
0.7109375
 70
192
  0
VERTEX
  8
BF_
 10
-0.2109375
 20
-0.4453125
 30
0.7109375
 70
192
  0
VERTEX
  8
BF_
 10
0.25
 20
-0.703125
 30
0.6875
 70
192
  0
VERTEX
  8
BF_
 10
-0.25
 20
-0.703125
 30
0.6875
 70
192
  0
VERTEX
  8
BF_
 10
0.265625
 20
-0.8203125
 30
0.6640625
 70
192
  0
VERTEX
  8
BF_
 10
-0.265625
 20
-0.8203125
 30
0.6640625
 70
192
  0
VERTEX
  8
BF_
 10
0.234375
 20
-0.9140625
 30
0.6328125
 70
192
  0
VERTEX
  8
BF_
 10
-0.234375
 20
-0.9140625
 30
0.6328125
 70
192
  0
VERTEX
  8
BF_
 10
0.1640625
 20
-0.9296875
 30
0.6328125
 70
192
  0
VERTEX
  8
BF_
 10
-0.1640625
 20
-0.9296875
 30
0.6328125
 70
192
  0
VERTEX
  8
BF_
 10
0.0
 20
-0.9453125
 30
0.640625
 70
192
  0
VERTEX
  8
BF_
 10
0.0
 20
0.046875
 30
0.7265625
 70
192
  0
VERTEX
  8
BF_
 10
0.0
 20
0.2109375
 30
0.765625
 70
192
  0
VERTEX
  8
BF_
 10
0.328125
 20
0.4765625
 30
0.7421875
 70
192
  0
VERTEX
  8
BF_
 10
-0.328125
 20
0.4765625
 30
0.7421875
 70
192
  0
VERTEX
  8
BF_
 10
0.1640625
 20
0.140625
 30
0.75
 70
192
  0
VERTEX
  8
BF_
 10
-0.1640625
 20
0.140625
 30
0.75
 70
192
  0
VERTEX
  8
BF_
 10
0.1328125
 20
0.2109375
 30
0.7578125
 70
192
  0
VERTEX
  8
BF_
 10
-0.1328125
 20
0.2109375
 30
0.7578125
 70
192
  0
VERTEX
  8
BF_
 10
0.1171875
 20
-0.6875
 30
0.734375
 70
192
  0
VERTEX
  8
BF_
 10
-0.1171875
 20
-0.6875
 30
0.734375
 70
192
  0
VERTEX
  8
BF_
 10
0.078125
 20
-0.4453125
 30
0.75
 70
192
  0
VERTEX
  8
BF_
 10
-0.078125
 20
-0.4453125
 30
0.75
 70
192
  0
VERTEX
  8
BF_
 10
0.0
 20
-0.4453125
 30
0.75
 70
192
  0
VERTEX
  8
BF_
 10
0.0
 20
-0.328125
 30
0.7421875
 70
192
  0
VERTEX
  8
BF_
 10
0.09375
 20
-0.2734375
 30
0.78125
 70
192
  0
VERTEX
  8
BF_
 10
-0.09375
 20
-0.2734375
 30
0.78125
 70
192
  0
VERTEX
  8
BF_
 10
0.1328125
 20
-0.2265625
 30
0.796875
 70
192
  0
VERTEX
  8
BF_
 10
-0.1328125
 20
-0.2265625
 30
0.796875
 70
192
  0
VERTEX
  8
BF_
 10
0.109375
 20
-0.1328125
 30
0.78125
 70
192
  0
VERTEX
  8
BF_
 10
-0.109375
 20
-0.1328125
 30
0.78125
 70
192
  0
VERTEX
  8
BF_
 10
0.0390625
 20
-0.125
 30
0.78125
 70
192
  0
VERTEX
  8
BF_
 10
-0.0390625
 20
-0.125
 30
0.78125
 70
192
  0
VERTEX
  8
BF_
 10
0.0
 20
-0.203125
 30
0.828125
 70
192
  0
VERTEX
  8
BF_
 10
0.046875
 20
-0.1484375
 30
0.8125
 70
192
  0
VERTEX
  8
BF_
 10
-0.046875
 20
-0.1484375
 30
0.8125
 70
192
  0
VERTEX
  8
BF_
 10
0.09375
 20
-0.15625
 30
0.8125
 70
192
  0
VERTEX
  8
BF_
 10
-0.09375
 20
-0.15625
 30
0.8125
 70
192
  0
VERTEX
  8
BF_
 10
0.109375
 20
-0.2265625
 30
0.828125
 70
192
  0
VERTEX
  8
BF_
 10
-0.109375
 20
-0.2265625
 30
0.828125
 70
192
  0
VERTEX
  8
BF_
 10
0.078125
 20
-0.25
 30
0.8046875
 70
192
  0
VERTEX
  8
BF_
 10
-0.078125
 20
-0.25
 30
0.8046875
 70
192
  0
VERTEX
  8
BF_
 10
0.0
 20
-0.2890625
 30
0.8046875
 70
192
  0
VERTEX
  8
BF_
 10
0.2578125
 20
-0.3125
 30
0.5546875
 70
192
  0
VERTEX
  8
BF_
 10
-0.2578125
 20
-0.3125
 30
0.5546875
 70
192
  0
VERTEX
  8
BF_
 10
0.1640625
 20
-0.2421875
 30
0.7109375
 70
192
  0
VERTEX
  8
BF_
 10
-0.1640625
 20
-0.2421875
 30
0.7109375
 70
192
  0
VERTEX
  8
BF_
 10
0.1796875
 20
-0.3125
 30
0.7109375
 70
192
  0
VERTEX
  8
BF_
 10
-0.1796875
 20
-0.3125
 30
0.7109375
 70
192
  0
VERTEX
  8
BF_
 10
0.234375
 20
-0.25
 30
0.5546875
 70
192
  0
VERTEX
  8
BF_
 10
-0.234375
 20
-0.25
 30
0.5546875
 70
192
  0
VERTEX
  8
BF_
 10
0.0
 20
-0.875
 30
0.6875
 70
192
  0
VERTEX
  8
BF_
 10
0.046875
 20
-0.8671875
 30
0.6875
 70
192
  0
VERTEX
  8
BF_
 10
-0.046875
 20
-0.8671875
 30
0.6875
 70
192
  0
VERTEX
  8
BF_
 10
0.09375
 20
-0.8203125
 30
0.7109375
 70
192
  0
VERTEX
  8
BF_
 10
-0.09375
 20
-0.8203125
 30
0.7109375
 70
192
  0
VERTEX
  8
BF_
 10
0.09375
 20
-0.7421875
 30
0.7265625
 70
192
  0
VERTEX
  8
BF_
 10
-0.09375
 20
-0.7421875
 30
0.7265625
 70
192
  0
VERTEX
  8
BF_
 10
0.0
 20
-0.78125
 30
0.65625
 70
192
  0
VERTEX
  8
BF_
 10
0.09375
 20
-0.75
 30
0.6640625
 70
192
  0
VERTEX
  8
BF_
 10
-0.09375
 20
-0.75
 30
0.6640625
 70
192
  0
VERTEX
  8
BF_
 10
0.09375
 20
-0.8125
 30
0.640625
 70
192
  0
VERTEX
  8
BF_
 10
-0.09375
 20
-0.8125
 30
0.640625
 70
192
  0
VERTEX
  8
BF_
 10
0.046875
 20
-0.8515625
 30
0.6328125
 70
192
  0
VERTEX
  8
BF_
 10
-0.046875
 20
-0.8515625
 30
0.6328125
 70
192
  0
VERTEX
  8
BF_
 10
0.0
 20
-0.859375
 30
0.6328125
 70
192
  0
VERTEX
  8
BF_
 10
0.171875
 20
0.21875
 30
0.78125
 70
192
  0
VERTEX
  8
BF_
 10
-0.171875
 20
0.21875
 30
0.78125
 70
192
  0
VERTEX
  8
BF_
 10
0.1875
 20
0.15625
 30
0.7734375
 70
192
  0
VERTEX
  8
BF_
 10
-0.1875
 20
0.15625
 30
0.7734375
 70
192
  0
VERTEX
  8
BF_
 10
0.3359375
 20
0.4296875
 30
0.7578125
 70
192
  0
VERTEX
  8
BF_
 10
-0.3359375
 20
0.4296875
 30
0.7578125
 70
192
  0
VERTEX
  8
BF_
 10
0.2734375
 20
0.421875
 30
0.7734375
 70
192
  0
VERTEX
  8
BF_
 10
-0.2734375
 20
0.421875
 30
0.7734375
 70
192
  0
VERTEX
  8
BF_
 10
0.421875
 20
0.3984375
 30
0.7734375
 70
192
  0
VERTEX
  8
BF_
 10
-0.421875
 20
0.3984375
 30
0.7734375
 70
192
  0
VERTEX
  8
BF_
 10
0.5625
 20
0.3515625
 30
0.6953125
 70
192
  0
VERTEX
  8
BF_
 10
-0.5625
 20
0.3515625
 30
0.6953125
 70
192
  0
VERTEX
  8
BF_
 10
0.5859375
 20
0.2890625
 30
0.6875
 70
192
  0
VERTEX
  8
BF_
 10
-0.5859375
 20
0.2890625
 30
0.6875
 70
192
  0
VERTEX
  8
BF_
 10
0.578125
 20
0.1953125
 30
0.6796875
 70
192
  0
VERTEX
  8
BF_
 10
-0.578125
 20
0.1953125
 30
0.6796875
 70
192
  0
VERTEX
  8
BF_
 10
0.4765625
 20
0.1015625
 30
0.71875
 70
192
  0
VERTEX
  8
BF_
 10
-0.4765625
 20
0.1015625
 30
0.71875
 70
192
  0
VERTEX
  8
BF_
 10
0.375
 20
0.0625
 30
0.7421875
 70
192
  0
VERTEX
  8
BF_
 10
-0.375
 20
0.0625
 30
0.7421875
 70
192
  0
VERTEX
  8
BF_
 10
0.2265625
 20
0.109375
 30
0.78125
 70
192
  0
VERTEX
  8
BF_
 10
-0.2265625
 20
0.109375
 30
0.78125
 70
192
  0
VERTEX
  8
BF_
 10
0.1796875
 20
0.296875
 30
0.78125
 70
192
  0
VERTEX
  8
BF_
 10
-0.1796875
 20
0.296875
 30
0.78125
 70
192
  0
VERTEX
  8
BF_
 10
0.2109375
 20
0.375
 30
0.78125
 70
192
  0
VERTEX
  8
BF_
 10
-0.2109375
 20
0.375
 30
0.78125
 70
192
  0
VERTEX
  8
BF_
 10
0.234375
 20
0.359375
 30
0.7578125
 70
192
  0
VERTEX
  8
BF_
 10
-0.234375
 20
0.359375
 30
0.7578125
 70
192
  0
VERTEX
  8
BF_
 10
0.1953125
 20
0.296875
 30
0.7578125
 70
192
  0
VERTEX
  8
BF_
 10
-0.1953125
 20
0.296875
 30
0.7578125
 70
192
  0
VERTEX
  8
BF_
 10
0.2421875
 20
0.125
 30
0.7578125
 70
192
  0
VERTEX
  8
BF_
 10
-0.2421875
 20
0.125
 30
0.7578125
 70
192
  0
VERTEX
  8
BF_
 10
0.375
 20
0.0859375
 30
0.7265625
 70
192
  0
VERTEX
  8
BF_
 10
-0.375
 20
0.0859375
 30
0.7265625
 70
192
  0
VERTEX
  8
BF_
 10
0.4609375
 20
0.1171875
 30
0.703125
 70
192
  0
VERTEX
  8
BF_
 10
-0.4609375
 20
0.1171875
 30
0.703125
 70
192
  0
VERTEX
  8
BF_
 10
0.546875
 20
0.2109375
 30
0.671875
 70
192
  0
VERTEX
  8
BF_
 10
-0.546875
 20
0.2109375
 30
0.671875
 70
192
  0
VERTEX
  8
BF_
 10
0.5546875
 20
0.28125
 30
0.671875
 70
192
  0
VERTEX
  8
BF_
 10
-0.5546875
 20
0.28125
 30
0.671875
 70
192
  0
VERTEX
  8
BF_
 10
0.53125
 20
0.3359375
 30
0.6796875
 70
192
  0
VERTEX
  8
BF_
 10
-0.53125
 20
0.3359375
 30
0.6796875
 70
192
  0
VERTEX
  8
BF_
 10
0.4140625
 20
0.390625
 30
0.75
 70
192
  0
VERTEX
  8
BF_
 10
-0.4140625
 20
0.390625
 30
0.75
 70
192
  0
VERTEX
  8
BF_
 10
0.28125
 20
0.3984375
 30
0.765625
 70
192
  0
VERTEX
  8
BF_
 10
-0.28125
 20
0.3984375
 30
0.765625
 70
192
  0
VERTEX
  8
BF_
 10
0.3359375
 20
0.40625
 30
0.75
 70
192
  0
VERTEX
  8
BF_
 10
-0.3359375
 20
0.40625
 30
0.75
 70
192
  0
VERTEX
  8
BF_
 10
0.203125
 20
0.171875
 30
0.75
 70
192
  0
VERTEX
  8
BF_
 10
-0.203125
 20
0.171875
 30
0.75
 70
192
  0
VERTEX
  8
BF_
 10
0.1953125
 20
0.2265625
 30
0.75
 70
192
  0
VERTEX
  8
BF_
 10
-0.1953125
 20
0.2265625
 30
0.75
 70
192
  0
VERTEX
  8
BF_
 10
0.109375
 20
0.4609375
 30
0.609375
 70
192
  0
VERTEX
  8
BF_
 10
-0.109375
 20
0.4609375
 30
0.609375
 70
192
  0
VERTEX
  8
BF_
 10
0.1953125
 20
0.6640625
 30
0.6171875
 70
192
  0
VERTEX
  8
BF_
 10
-0.1953125
 20
0.6640625
 30
0.6171875
 70
192
  0
VERTEX
  8
BF_
 10
0.3359375
 20
0.6875
 30
0.59375
 70
192
  0
VERTEX
  8
BF_
 10
-0.3359375
 20
0.6875
 30
0.59375
 70
192
  0
VERTEX
  8
BF_
 10
0.484375
 20
0.5546875
 30
0.5546875
 70
192
  0
VERTEX
  8
BF_
 10
-0.484375
 20
0.5546875
 30
0.5546875
 70
192
  0
VERTEX
  8
BF_
 10
0.6796875
 20
0.453125
 30
0.4921875
 70
192
  0
VERTEX
  8
BF_
 10
-0.6796875
 20
0.453125
 30
0.4921875
 70
192
  0
VERTEX
  8
BF_
 10
0.796875
 20
0.40625
 30
0.4609375
 70
192
  0
VERTEX
  8
BF_
 10
-0.796875
 20
0.40625
 30
0.4609375
 70
192
  0
VERTEX
  8
BF_
 10
0.7734375
 20
0.1640625
 30
0.375
 70
192
  0
VERTEX
  8
BF_
 10
-0.7734375
 20
0.1640625
 30
0.375
 70
192
  0
VERTEX
  8
BF_
 10
0.6015625
 20
0.0
 30
0.4140625
 70
192
  0
VERTEX
  8
BF_
 10
-0.6015625
 20
0.0
 30
0.4140625
 70
192
  0
VERTEX
  8
BF_
 10
0.4375
 20
-0.09375
 30
0.46875
 70
192
  0
VERTEX
  8
BF_
 10
-0.4375
 20
-0.09375
 30
0.46875
 70
192
  0
VERTEX
  8
BF_
 10
0.0
 20
0.8984375
 30
0.2890625
 70
192
  0
VERTEX
  8
BF_
 10
0.0
 20
0.984375
 30
-0.078125
 70
192
  0
VERTEX
  8
BF_
 10
0.0
 20
-0.1953125
 30
-0.671875
 70
192
  0
VERTEX
  8
BF_
 10
0.0
 20
-0.4609375
 30
0.1875
 70
192
  0
VERTEX
  8
BF_
 10
0.0
 20
-0.9765625
 30
0.4609375
 70
192
  0
VERTEX
  8
BF_
 10
0.0
 20
-0.8046875
 30
0.34375
 70
192
  0
VERTEX
  8
BF_
 10
0.0
 20
-0.5703125
 30
0.3203125
 70
192
  0
VERTEX
  8
BF_
 10
0.0
 20
-0.484375
 30
0.28125
 70
192
  0
VERTEX
  8
BF_
 10
0.8515625
 20
0.234375
 30
0.0546875
 70
192
  0
VERTEX
  8
BF_
 10
-0.8515625
 20
0.234375
 30
0.0546875
 70
192
  0
VERTEX
  8
BF_
 10
0.859375
 20
0.3203125
 30
-0.046875
 70
192
  0
VERTEX
  8
BF_
 10
-0.859375
 20
0.3203125
 30
-0.046875
 70
192
  0
VERTEX
  8
BF_
 10
0.7734375
 20
0.265625
 30
-0.4375
 70
192
  0
VERTEX
  8
BF_
 10
-0.7734375
 20
0.265625
 30
-0.4375
 70
192
  0
VERTEX
  8
BF_
 10
0.4609375
 20
0.4375
 30
-0.703125
 70
192
  0
VERTEX
  8
BF_
 10
-0.4609375
 20
0.4375
 30
-0.703125
 70
192
  0
VERTEX
  8
BF_
 10
0.734375
 20
-0.046875
 30
0.0703125
 70
192
  0
VERTEX
  8
BF_
 10
-0.734375
 20
-0.046875
 30
0.0703125
 70
192
  0
VERTEX
  8
BF_
 10
0.59375
 20
-0.125
 30
-0.1640625
 70
192
  0
VERTEX
  8
BF_
 10
-0.59375
 20
-0.125
 30
-0.1640625
 70
192
  0
VERTEX
  8
BF_
 10
0.640625
 20
-0.0078125
 30
-0.4296875
 70
192
  0
VERTEX
  8
BF_
 10
-0.640625
 20
-0.0078125
 30
-0.4296875
 70
192
  0
VERTEX
  8
BF_
 10
0.3359375
 20
0.0546875
 30
-0.6640625
 70
192
  0
VERTEX
  8
BF_
 10
-0.3359375
 20
0.0546875
 30
-0.6640625
 70
192
  0
VERTEX
  8
BF_
 10
0.234375
 20
-0.3515625
 30
0.40625
 70
192
  0
VERTEX
  8
BF_
 10
-0.234375
 20
-0.3515625
 30
0.40625
 70
192
  0
VERTEX
  8
BF_
 10
0.1796875
 20
-0.4140625
 30
0.2578125
 70
192
  0
VERTEX
  8
BF_
 10
-0.1796875
 20
-0.4140625
 30
0.2578125
 70
192
  0
VERTEX
  8
BF_
 10
0.2890625
 20
-0.7109375
 30
0.3828125
 70
192
  0
VERTEX
  8
BF_
 10
-0.2890625
 20
-0.7109375
 30
0.3828125
 70
192
  0
VERTEX
  8
BF_
 10
0.25
 20
-0.5
 30
0.390625
 70
192
  0
VERTEX
  8
BF_
 10
-0.25
 20
-0.5
 30
0.390625
 70
192
  0
VERTEX
  8
BF_
 10
0.328125
 20
-0.9140625
 30
0.3984375
 70
192
  0
VERTEX
  8
BF_
 10
-0.328125
 20
-0.9140625
 30
0.3984375
 70
192
  0
VERTEX
  8
BF_
 10
0.140625
 20
-0.7578125
 30
0.3671875
 70
192
  0
VERTEX
  8
BF_
 10
-0.140625
 20
-0.7578125
 30
0.3671875
 70
192
  0
VERTEX
  8
BF_
 10
0.125
 20
-0.5390625
 30
0.359375
 70
192
  0
VERTEX
  8
BF_
 10
-0.125
 20
-0.5390625
 30
0.359375
 70
192
  0
VERTEX
  8
BF_
 10
0.1640625
 20
-0.9453125
 30
0.4375
 70
192
  0
VERTEX
  8
BF_
 10
-0.1640625
 20
-0.9453125
 30
0.4375
 70
192
  0
VERTEX
  8
BF_
 10
0.21875
 20
-0.28125
 30
0.4296875
 70
192
  0
VERTEX
  8
BF_
 10
-0.21875
 20
-0.28125
 30
0.4296875
 70
192
  0
VERTEX
  8
BF_
 10
0.2109375
 20
-0.2265625
 30
0.46875
 70
192
  0
VERTEX
  8
BF_
 10
-0.2109375
 20
-0.2265625
 30
0.46875
 70
192
  0
VERTEX
  8
BF_
 10
0.203125
 20
-0.171875
 30
0.5
 70
192
  0
VERTEX
  8
BF_
 10
-0.203125
 20
-0.171875
 30
0.5
 70
192
  0
VERTEX
  8
BF_
 10
0.2109375
 20
-0.390625
 30
0.1640625
 70
192
  0
VERTEX
  8
BF_
 10
-0.2109375
 20
-0.390625
 30
0.1640625
 70
192
  0
VERTEX
  8
BF_
 10
0.296875
 20
-0.3125
 30
-0.265625
 70
192
  0
VERTEX
  8
BF_
 10
-0.296875
 20
-0.3125
 30
-0.265625
 70
192
  0
VERTEX
  8
BF_
 10
0.34375
 20
-0.1484375
 30
-0.5390625
 70
192
  0
VERTEX
  8
BF_
 10
-0.34375
 20
-0.1484375
 30
-0.5390625
 70
192
  0
VERTEX
  8
BF_
 10
0.453125
 20
0.8671875
 30
-0.3828125
 70
192
  0
VERTEX
  8
BF_
 10
-0.453125
 20
0.8671875
 30
-0.3828125
 70
192
  0
VERTEX
  8
BF_
 10
0.453125
 20
0.9296875
 30
-0.0703125
 70
192
  0
VERTEX
  8
BF_
 10
-0.453125
 20
0.9296875
 30
-0.0703125
 70
192
  0
VERTEX
  8
BF_
 10
0.453125
 20
0.8515625
 30
0.234375
 70
192
  0
VERTEX
  8
BF_
 10
-0.453125
 20
0.8515625
 30
0.234375
 70
192
  0
VERTEX
  8
BF_
 10
0.4609375
 20
0.5234375
 30
0.4296875
 70
192
  0
VERTEX
  8
BF_
 10
-0.4609375
 20
0.5234375
 30
0.4296875
 70
192
  0
VERTEX
  8
BF_
 10
0.7265625
 20
0.40625
 30
0.3359375
 70
192
  0
VERTEX
  8
BF_
 10
-0.7265625
 20
0.40625
 30
0.3359375
 70
192
  0
VERTEX
  8
BF_
 10
0.6328125
 20
0.453125
 30
0.28125
 70
192
  0
VERTEX
  8
BF_
 10
-0.6328125
 20
0.453125
 30
0.28125
 70
192
  0
VERTEX
  8
BF_
 10
0.640625
 20
0.703125
 30
0.0546875
 70
192
  0
VERTEX
  8
BF_
 10
-0.640625
 20
0.703125
 30
0.0546875
 70
192
  0
VERTEX
  8
BF_
 10
0.796875
 20
0.5625
 30
0.125
 70
192
  0
VERTEX
  8
BF_
 10
-0.796875
 20
0.5625
 30
0.125
 70
192
  0
VERTEX
  8
BF_
 10
0.796875
 20
0.6171875
 30
-0.1171875
 70
192
  0
VERTEX
  8
BF_
 10
-0.796875
 20
0.6171875
 30
-0.1171875
 70
192
  0
VERTEX
  8
BF_
 10
0.640625
 20
0.75
 30
-0.1953125
 70
192
  0
VERTEX
  8
BF_
 10
-0.640625
 20
0.75
 30
-0.1953125
 70
192
  0
VERTEX
  8
BF_
 10
0.640625
 20
0.6796875
 30
-0.4453125
 70
192
  0
VERTEX
  8
BF_
 10
-0.640625
 20
0.6796875
 30
-0.4453125
 70
192
  0
VERTEX
  8
BF_
 10
0.796875
 20
0.5390625
 30
-0.359375
 70
192
  0
VERTEX
  8
BF_
 10
-0.796875
 20
0.5390625
 30
-0.359375
 70
192
  0
VERTEX
  8
BF_
 10
0.6171875
 20
0.328125
 30
-0.5859375
 70
192
  0
VERTEX
  8
BF_
 10
-0.6171875
 20
0.328125
 30
-0.5859375
 70
192
  0
VERTEX
  8
BF_
 10
0.484375
 20
0.0234375
 30
-0.546875
 70
192
  0
VERTEX
  8
BF_
 10
-0.484375
 20
0.0234375
 30
-0.546875
 70
192
  0
VERTEX
  8
BF_
 10
0.8203125
 20
0.328125
 30
-0.203125
 70
192
  0
VERTEX
  8
BF_
 10
-0.8203125
 20
0.328125
 30
-0.203125
 70
192
  0
VERTEX
  8
BF_
 10
0.40625
 20
-0.171875
 30
0.1484375
 70
192
  0
VERTEX
  8
BF_
 10
-0.40625
 20
-0.171875
 30
0.1484375
 70
192
  0
VERTEX
  8
BF_
 10
0.4296875
 20
-0.1953125
 30
-0.2109375
 70
192
  0
VERTEX
  8
BF_
 10
-0.4296875
 20
-0.1953125
 30
-0.2109375
 70
192
  0
VERTEX
  8
BF_
 10
0.890625
 20
0.40625
 30
-0.234375
 70
192
  0
VERTEX
  8
BF_
 10
-0.890625
 20
0.40625
 30
-0.234375
 70
192
  0
VERTEX
  8
BF_
 10
0.7734375
 20
-0.140625
 30
-0.125
 70
192
  0
VERTEX
  8
BF_
 10
-0.7734375
 20
-0.140625
 30
-0.125
 70
192
  0
VERTEX
  8
BF_
 10
1.0390625
 20
-0.1015625
 30
-0.328125
 70
192
  0
VERTEX
  8
BF_
 10
-1.0390625
 20
-0.1015625
 30
-0.328125
 70
192
  0
VERTEX
  8
BF_
 10
1.28125
 20
0.0546875
 30
-0.4296875
 70
192
  0
VERTEX
  8
BF_
 10
-1.28125
 20
0.0546875
 30
-0.4296875
 70
192
  0
VERTEX
  8
BF_
 10
1.3515625
 20
0.3203125
 30
-0.421875
 70
192
  0
VERTEX
  8
BF_
 10
-1.3515625
 20
0.3203125
 30
-0.421875
 70
192
  0
VERTEX
  8
BF_
 10
1.234375
 20
0.5078125
 30
-0.421875
 70
192
  0
VERTEX
  8
BF_
 10
-1.234375
 20
0.5078125
 30
-0.421875
 70
192
  0
VERTEX
  8
BF_
 10
1.0234375
 20
0.4765625
 30
-0.3125
 70
192
  0
VERTEX
  8
BF_
 10
-1.0234375
 20
0.4765625
 30
-0.3125
 70
192
  0
VERTEX
  8
BF_
 10
1.015625
 20
0.4140625
 30
-0.2890625
 70
192
  0
VERTEX
  8
BF_
 10
-1.015625
 20
0.4140625
 30
-0.2890625
 70
192
  0
VERTEX
  8
BF_
 10
1.1875
 20
0.4375
 30
-0.390625
 70
192
  0
VERTEX
  8
BF_
 10
-1.1875
 20
0.4375
 30
-0.390625
 70
192
  0
VERTEX
  8
BF_
 10
1.265625
 20
0.2890625
 30
-0.40625
 70
192
  0
VERTEX
  8
BF_
 10
-1.265625
 20
0.2890625
 30
-0.40625
 70
192
  0
VERTEX
  8
BF_
 10
1.2109375
 20
0.078125
 30
-0.40625
 70
192
  0
VERTEX
  8
BF_
 10
-1.2109375
 20
0.078125
 30
-0.40625
 70
192
  0
VERTEX
  8
BF_
 10
1.03125
 20
-0.0390625
 30
-0.3046875
 70
192
  0
VERTEX
  8
BF_
 10
-1.03125
 20
-0.0390625
 30
-0.3046875
 70
192
  0
VERTEX
  8
BF_
 10
0.828125
 20
-0.0703125
 30
-0.1328125
 70
192
  0
VERTEX
  8
BF_
 10
-0.828125
 20
-0.0703125
 30
-0.1328125
 70
192
  0
VERTEX
  8
BF_
 10
0.921875
 20
0.359375
 30
-0.21875
 70
192
  0
VERTEX
  8
BF_
 10
-0.921875
 20
0.359375
 30
-0.21875
 70
192
  0
VERTEX
  8
BF_
 10
0.9453125
 20
0.3046875
 30
-0.2890625
 70
192
  0
VERTEX
  8
BF_
 10
-0.9453125
 20
0.3046875
 30
-0.2890625
 70
192
  0
VERTEX
  8
BF_
 10
0.8828125
 20
-0.0234375
 30
-0.2109375
 70
192
  0
VERTEX
  8
BF_
 10
-0.8828125
 20
-0.0234375
 30
-0.2109375
 70
192
  0
VERTEX
  8
BF_
 10
1.0390625
 20
0.0
 30
-0.3671875
 70
192
  0
VERTEX
  8
BF_
 10
-1.0390625
 20
0.0
 30
-0.3671875
 70
192
  0
VERTEX
  8
BF_
 10
1.1875
 20
0.09375
 30
-0.4453125
 70
192
  0
VERTEX
  8
BF_
 10
-1.1875
 20
0.09375
 30
-0.4453125
 70
192
  0
VERTEX
  8
BF_
 10
1.234375
 20
0.25
 30
-0.4453125
 70
192
  0
VERTEX
  8
BF_
 10
-1.234375
 20
0.25
 30
-0.4453125
 70
192
  0
VERTEX
  8
BF_
 10
1.171875
 20
0.359375
 30
-0.4375
 70
192
  0
VERTEX
  8
BF_
 10
-1.171875
 20
0.359375
 30
-0.4375
 70
192
  0
VERTEX
  8
BF_
 10
1.0234375
 20
0.34375
 30
-0.359375
 70
192
  0
VERTEX
  8
BF_
 10
-1.0234375
 20
0.34375
 30
-0.359375
 70
192
  0
VERTEX
  8
BF_
 10
0.84375
 20
0.2890625
 30
-0.2109375
 70
192
  0
VERTEX
  8
BF_
 10
-0.84375
 20
0.2890625
 30
-0.2109375
 70
192
  0
VERTEX
  8
BF_
 10
0.8359375
 20
0.171875
 30
-0.2734375
 70
192
  0
VERTEX
  8
BF_
 10
-0.8359375
 20
0.171875
 30
-0.2734375
 70
192
  0
VERTEX
  8
BF_
 10
0.7578125
 20
0.09375
 30
-0.2734375
 70
192
  0
VERTEX
  8
BF_
 10
-0.7578125
 20
0.09375
 30
-0.2734375
 70
192
  0
VERTEX
  8
BF_
 10
0.8203125
 20
0.0859375
 30
-0.2734375
 70
192
  0
VERTEX
  8
BF_
 10
-0.8203125
 20
0.0859375
 30
-0.2734375
 70
192
  0
VERTEX
  8
BF_
 10
0.84375
 20
0.015625
 30
-0.2734375
 70
192
  0
VERTEX
  8
BF_
 10
-0.84375
 20
0.015625
 30
-0.2734375
 70
192
  0
VERTEX
  8
BF_
 10
0.8125
 20
-0.015625
 30
-0.2734375
 70
192
  0
VERTEX
  8
BF_
 10
-0.8125
 20
-0.015625
 30
-0.2734375
 70
192
  0
VERTEX
  8
BF_
 10
0.7265625
 20
0.0
 30
-0.0703125
 70
192
  0
VERTEX
  8
BF_
 10
-0.7265625
 20
0.0
 30
-0.0703125
 70
192
  0
VERTEX
  8
BF_
 10
0.71875
 20
-0.0234375
 30
-0.171875
 70
192
  0
VERTEX
  8
BF_
 10
-0.71875
 20
-0.0234375
 30
-0.171875
 70
192
  0
VERTEX
  8
BF_
 10
0.71875
 20
0.0390625
 30
-0.1875
 70
192
  0
VERTEX
  8
BF_
 10
-0.71875
 20
0.0390625
 30
-0.1875
 70
192
  0
VERTEX
  8
BF_
 10
0.796875
 20
0.203125
 30
-0.2109375
 70
192
  0
VERTEX
  8
BF_
 10
-0.796875
 20
0.203125
 30
-0.2109375
 70
192
  0
VERTEX
  8
BF_
 10
0.890625
 20
0.2421875
 30
-0.265625
 70
192
  0
VERTEX
  8
BF_
 10
-0.890625
 20
0.2421875
 30
-0.265625
 70
192
  0
VERTEX
  8
BF_
 10
0.890625
 20
0.234375
 30
-0.3203125
 70
192
  0
VERTEX
  8
BF_
 10
-0.890625
 20
0.234375
 30
-0.3203125
 70
192
  0
VERTEX
  8
BF_
 10
0.8125
 20
-0.015625
 30
-0.3203125
 70
192
  0
VERTEX
  8
BF_
 10
-0.8125
 20
-0.015625
 30
-0.3203125
 70
192
  0
VERTEX
  8
BF_
 10
0.8515625
 20
0.015625
 30
-0.3203125
 70
192
  0
VERTEX
  8
BF_
 10
-0.8515625
 20
0.015625
 30
-0.3203125
 70
192
  0
VERTEX
  8
BF_
 10
0.828125
 20
0.078125
 30
-0.3203125
 70
192
  0
VERTEX
  8
BF_
 10
-0.828125
 20
0.078125
 30
-0.3203125
 70
192
  0
VERTEX
  8
BF_
 10
0.765625
 20
0.09375
 30
-0.3203125
 70
192
  0
VERTEX
  8
BF_
 10
-0.765625
 20
0.09375
 30
-0.3203125
 70
192
  0
VERTEX
  8
BF_
 10
0.84375
 20
0.171875
 30
-0.3203125
 70
192
  0
VERTEX
  8
BF_
 10
-0.84375
 20
0.171875
 30
-0.3203125
 70
192
  0
VERTEX
  8
BF_
 10
1.0390625
 20
0.328125
 30
-0.4140625
 70
192
  0
VERTEX
  8
BF_
 10
-1.0390625
 20
0.328125
 30
-0.4140625
 70
192
  0
VERTEX
  8
BF_
 10
1.1875
 20
0.34375
 30
-0.484375
 70
192
  0
VERTEX
  8
BF_
 10
-1.1875
 20
0.34375
 30
-0.484375
 70
192
  0
VERTEX
  8
BF_
 10
1.2578125
 20
0.2421875
 30
-0.4921875
 70
192
  0
VERTEX
  8
BF_
 10
-1.2578125
 20
0.2421875
 30
-0.4921875
 70
192
  0
VERTEX
  8
BF_
 10
1.2109375
 20
0.0859375
 30
-0.484375
 70
192
  0
VERTEX
  8
BF_
 10
-1.2109375
 20
0.0859375
 30
-0.484375
 70
192
  0
VERTEX
  8
BF_
 10
1.046875
 20
0.0
 30
-0.421875
 70
192
  0
VERTEX
  8
BF_
 10
-1.046875
 20
0.0
 30
-0.421875
 70
192
  0
VERTEX
  8
BF_
 10
0.8828125
 20
-0.015625
 30
-0.265625
 70
192
  0
VERTEX
  8
BF_
 10
-0.8828125
 20
-0.015625
 30
-0.265625
 70
192
  0
VERTEX
  8
BF_
 10
0.953125
 20
0.2890625
 30
-0.34375
 70
192
  0
VERTEX
  8
BF_
 10
-0.953125
 20
0.2890625
 30
-0.34375
 70
192
  0
VERTEX
  8
BF_
 10
0.890625
 20
0.109375
 30
-0.328125
 70
192
  0
VERTEX
  8
BF_
 10
-0.890625
 20
0.109375
 30
-0.328125
 70
192
  0
VERTEX
  8
BF_
 10
0.9375
 20
0.0625
 30
-0.3359375
 70
192
  0
VERTEX
  8
BF_
 10
-0.9375
 20
0.0625
 30
-0.3359375
 70
192
  0
VERTEX
  8
BF_
 10
1.0
 20
0.125
 30
-0.3671875
 70
192
  0
VERTEX
  8
BF_
 10
-1.0
 20
0.125
 30
-0.3671875
 70
192
  0
VERTEX
  8
BF_
 10
0.9609375
 20
0.171875
 30
-0.3515625
 70
192
  0
VERTEX
  8
BF_
 10
-0.9609375
 20
0.171875
 30
-0.3515625
 70
192
  0
VERTEX
  8
BF_
 10
1.015625
 20
0.234375
 30
-0.375
 70
192
  0
VERTEX
  8
BF_
 10
-1.015625
 20
0.234375
 30
-0.375
 70
192
  0
VERTEX
  8
BF_
 10
1.0546875
 20
0.1875
 30
-0.3828125
 70
192
  0
VERTEX
  8
BF_
 10
-1.0546875
 20
0.1875
 30
-0.3828125
 70
192
  0
VERTEX
  8
BF_
 10
1.109375
 20
0.2109375
 30
-0.390625
 70
192
  0
VERTEX
  8
BF_
 10
-1.109375
 20
0.2109375
 30
-0.390625
 70
192
  0
VERTEX
  8
BF_
 10
1.0859375
 20
0.2734375
 30
-0.390625
 70
192
  0
VERTEX
  8
BF_
 10
-1.0859375
 20
0.2734375
 30
-0.390625
 70
192
  0
VERTEX
  8
BF_
 10
1.0234375
 20
0.4375
 30
-0.484375
 70
192
  0
VERTEX
  8
BF_
 10
-1.0234375
 20
0.4375
 30
-0.484375
 70
192
  0
VERTEX
  8
BF_
 10
1.25
 20
0.46875
 30
-0.546875
 70
192
  0
VERTEX
  8
BF_
 10
-1.25
 20
0.46875
 30
-0.546875
 70
192
  0
VERTEX
  8
BF_
 10
1.3671875
 20
0.296875
 30
-0.5
 70
192
  0
VERTEX
  8
BF_
 10
-1.3671875
 20
0.296875
 30
-0.5
 70
192
  0
VERTEX
  8
BF_
 10
1.3125
 20
0.0546875
 30
-0.53125
 70
192
  0
VERTEX
  8
BF_
 10
-1.3125
 20
0.0546875
 30
-0.53125
 70
192
  0
VERTEX
  8
BF_
 10
1.0390625
 20
-0.0859375
 30
-0.4921875
 70
192
  0
VERTEX
  8
BF_
 10
-1.0390625
 20
-0.0859375
 30
-0.4921875
 70
192
  0
VERTEX
  8
BF_
 10
0.7890625
 20
-0.125
 30
-0.328125
 70
192
  0
VERTEX
  8
BF_
 10
-0.7890625
 20
-0.125
 30
-0.328125
 70
192
  0
VERTEX
  8
BF_
 10
0.859375
 20
0.3828125
 30
-0.3828125
 70
192
  0
VERTEX
  8
BF_
 10
-0.859375
 20
0.3828125
 30
-0.3828125
 70
192
  0
VERTEX
  8
BF_
 10
0.0
 20
0.0
 30
0.0
 70
128
 71
47
 72
1
 73
3
 74
45
  0
VERTEX
  8
BF_
 10
0.0
 20
0.0
 30
0.0
 70
128
 71
4
 72
2
 73
48
 74
46
  0
VERTEX
  8
BF_
 10
0.0
 20
0.0
 30
0.0
 70
128
 71
45
 72
3
 73
5
 74
43
  0
VERTEX
  8
BF_
 10
0.0
 20
0.0
 30
0.0
 70
128
 71
6
 72
4
 73
46
 74
44
  0
VERTEX
  8
BF_
 10
0.0
 20
0.0
 30
0.0
 70
128
 71
3
 72
9
 73
7
 74
5
  0
VERTEX
  8
BF_
 10
0.0
 20
0.0
 30
0.0
 70
128
 71
8
 72
10
 73
4
 74
6
  0
VERTEX
  8
BF_
 10
0.0
 20
0.0
 30
0.0
 70
128
 71
1
 72
11
 73
9
 74
3
  0
VERTEX
  8
BF_
 10
0.0
 20
0.0
 30
0.0
 70
128
 71
10
 72
12
 73
2
 74
4
  0
VERTEX
  8
BF_
 10
0.0
 20
0.0
 30
0.0
 70
128
 71
11
 72
13
 73
15
 74
9
  0
VERTEX
  8
BF_
 10
0.0
 20
0.0
 30
0.0
 70
128
 71
16
 72
14
 73
12
 74
10
  0
VERTEX
  8
BF_
 10
0.0
 20
0.0
 30
0.0
 70
128
 71
9
 72
15
 73
17
 74
7
  0
VERTEX
  8
BF_
 10
0.0
 20
0.0
 30
0.0
 70
128
 71
18
 72
16
 73
10
 74
8
  0
VERTEX
  8
BF_
 10
0.0
 20
0.0
 30
0.0
 70
128
 71
15
 72
21
 73
19
 74
17
  0
VERTEX
  8
BF_
 10
0.0
 20
0.0
 30
0.0
 70
128
 71
20
 72
22
 73
16
 74
18
  0
VERTEX
  8
BF_
 10
0.0
 20
0.0
 30
0.0
 70
128
 71
13
 72
23
 73
21
 74
15
  0
VERTEX
  8
BF_
 10
0.0
 20
0.0
 30
0.0
 70
128
 71
22
 72
24
 73
14
 74
16
  0
VERTEX
  8
BF_
 10
0.0
 20
0.0
 30
0.0
 70
128
 71
23
 72
25
 73
27
 74
21
  0
VERTEX
  8
BF_
 10
0.0
 20
0.0
 30
0.0
 70
128
 71
28
 72
26
 73
24
 74
22
  0
VERTEX
  8
BF_
 10
0.0
 20
0.0
 30
0.0
 70
128
 71
21
 72
27
 73
29
 74
19
  0
VERTEX
  8
BF_
 10
0.0
 20
0.0
 30
0.0
 70
128
 71
30
 72
28
 73
22
 74
20
  0
VERTEX
  8
BF_
 10
0.0
 20
0.0
 30
0.0
 70
128
 71
27
 72
33
 73
31
 74
29
  0
VERTEX
  8
BF_
 10
0.0
 20
0.0
 30
0.0
 70
128
 71
32
 72
34
 73
28
 74
30
  0
VERTEX
  8
BF_
 10
0.0
 20
0.0
 30
0.0
 70
128
 71
25
 72
35
 73
33
 74
27
  0
VERTEX
  8
BF_
 10
0.0
 20
0.0
 30
0.0
 70
128
 71
34
 72
36
 73
26
 74
28
  0
VERTEX
  8
BF_
 10
0.0
 20
0.0
 30
0.0
 70
128
 71
35
 72
37
 73
39
 74
33
  0
VERTEX
  8
BF_
 10
0.0
 20
0.0
 30
0.0
 70
128
 71
40
 72
38
 73
36
 74
34
  0
VERTEX
  8
BF_
 10
0.0
 20
0.0
 30
0.0
 70
128
 71
33
 72
39
 73
41
 74
31
  0
VERTEX
  8
BF_
 10
0.0
 20
0.0
 30
0.0
 70
128
 71
42
 72
40
 73
34
 74
32
  0
VERTEX
  8
BF_
 10
0.0
 20
0.0
 30
0.0
 70
128
 71
39
 72
45
 73
43
 74
41
  0
VERTEX
  8
BF_
 10
0.0
 20
0.0
 30
0.0
 70
128
 71
44
 72
46
 73
40
 74
42
  0
VERTEX
  8
BF_
 10
0.0
 20
0.0
 30
0.0
 70
128
 71
37
 72
47
 73
45
 74
39
  0
VERTEX
  8
BF_
 10
0.0
 20
0.0
 30
0.0
 70
128
 71
46
 72
48
 73
38
 74
40
  0
VERTEX
  8
BF_
 10
0.0
 20
0.0
 30
0.0
 70
128
 71
47
 72
37
 73
51
 74
49
  0
VERTEX
  8
BF_
 10
0.0
 20
0.0
 30
0.0
 70
128
 71
52
 72
38
 73
48
 74
50
  0
VERTEX
  8
BF_
 10
0.0
 20
0.0
 30
0.0
 70
128
 71
37
 72
35
 73
53
 74
51
  0
VERTEX
  8
BF_
 10
0.0
 20
0.0
 30
0.0
 70
128
 71
54
 72
36
 73
38
 74
52
  0
VERTEX
  8
BF_
 10
0.0
 20
0.0
 30
0.0
 70
128
 71
35
 72
25
 73
55
 74
53
  0
VERTEX
  8
BF_
 10
0.0
 20
0.0
 30
0.0
 70
128
 71
56
 72
26
 73
36
 74
54
  0
VERTEX
  8
BF_
 10
0.0
 20
0.0
 30
0.0
 70
128
 71
25
 72
23
 73
57
 74
55
  0
VERTEX
  8
BF_
 10
0.0
 20
0.0
 30
0.0
 70
128
 71
58
 72
24
 73
26
 74
56
  0
VERTEX
  8
BF_
 10
0.0
 20
0.0
 30
0.0
 70
128
 71
23
 72
13
 73
59
 74
57
  0
VERTEX
  8
BF_
 10
0.0
 20
0.0
 30
0.0
 70
128
 71
60
 72
14
 73
24
 74
58
  0
VERTEX
  8
BF_
 10
0.0
 20
0.0
 30
0.0
 70
128
 71
13
 72
11
 73
63
 74
59
  0
VERTEX
  8
BF_
 10
0.0
 20
0.0
 30
0.0
 70
128
 71
64
 72
12
 73
14
 74
60
  0
VERTEX
  8
BF_
 10
0.0
 20
0.0
 30
0.0
 70
128
 71
11
 72
1
 73
65
 74
63
  0
VERTEX
  8
BF_
 10
0.0
 20
0.0
 30
0.0
 70
128
 71
66
 72
2
 73
12
 74
64
  0
VERTEX
  8
BF_
 10
0.0
 20
0.0
 30
0.0
 70
128
 71
1
 72
47
 73
49
 74
65
  0
VERTEX
  8
BF_
 10
0.0
 20
0.0
 30
0.0
 70
128
 71
50
 72
48
 73
2
 74
66
  0
VERTEX
  8
BF_
 10
0.0
 20
0.0
 30
0.0
 70
128
 71
61
 72
65
 73
49
  0
VERTEX
  8
BF_
 10
0.0
 20
0.0
 30
0.0
 70
128
 71
50
 72
66
 73
62
  0
VERTEX
  8
BF_
 10
0.0
 20
0.0
 30
0.0
 70
128
 71
63
 72
65
 73
61
  0
VERTEX
  8
BF_
 10
0.0
 20
0.0
 30
0.0
 70
128
 71
62
 72
66
 73
64
  0
VERTEX
  8
BF_
 10
0.0
 20
0.0
 30
0.0
 70
128
 71
61
 72
59
 73
63
  0
VERTEX
  8
BF_
 10
0.0
 20
0.0
 30
0.0
 70
128
 71
64
 72
60
 73
62
  0
VERTEX
  8
BF_
 10
0.0
 20
0.0
 30
0.0
 70
128
 71
61
 72
57
 73
59
  0
VERTEX
  8
BF_
 10
0.0
 20
0.0
 30
0.0
 70
128
 71
60
 72
58
 73
62
  0
VERTEX
  8
BF_
 10
0.0
 20
0.0
 30
0.0
 70
128
 71
61
 72
55
 73
57
  0
VERTEX
  8
BF_
 10
0.0
 20
0.0
 30
0.0
 70
128
 71
58
 72
56
 73
62
  0
VERTEX
  8
BF_
 10
0.0
 20
0.0
 30
0.0
 70
128
 71
61
 72
53
 73
55
  0
VERTEX
  8
BF_
 10
0.0
 20
0.0
 30
0.0
 70
128
 71
56
 72
54
 73
62
  0
VERTEX
  8
BF_
 10
0.0
 20
0.0
 30
0.0
 70
128
 71
61
 72
51
 73
53
  0
VERTEX
  8
BF_
 10
0.0
 20
0.0
 30
0.0
 70
128
 71
54
 72
52
 73
62
  0
VERTEX
  8
BF_
 10
0.0
 20
0.0
 30
0.0
 70
128
 71
61
 72
49
 73
51
  0
VERTEX
  8
BF_
 10
0.0
 20
0.0
 30
0.0
 70
128
 71
52
 72
50
 73
62
  0
VERTEX
  8
BF_
 10
0.0
 20
0.0
 30
0.0
 70
128
 71
89
 72
174
 73
176
 74
91
  0
VERTEX
  8
BF_
 10
0.0
 20
0.0
 30
0.0
 70
128
 71
176
 72
175
 73
90
 74
91
  0
VERTEX
  8
BF_
 10
0.0
 20
0.0
 30
0.0
 70
128
 71
87
 72
172
 73
174
 74
89
  0
VERTEX
  8
BF_
 10
0.0
 20
0.0
 30
0.0
 70
128
 71
175
 72
173
 73
88
 74
90
  0
VERTEX
  8
BF_
 10
0.0
 20
0.0
 30
0.0
 70
128
 71
85
 72
170
 73
172
 74
87
  0
VERTEX
  8
BF_
 10
0.0
 20
0.0
 30
0.0
 70
128
 71
173
 72
171
 73
86
 74
88
  0
VERTEX
  8
BF_
 10
0.0
 20
0.0
 30
0.0
 70
128
 71
83
 72
168
 73
170
 74
85
  0
VERTEX
  8
BF_
 10
0.0
 20
0.0
 30
0.0
 70
128
 71
171
 72
169
 73
84
 74
86
  0
VERTEX
  8
BF_
 10
0.0
 20
0.0
 30
0.0
 70
128
 71
81
 72
166
 73
168
 74
83
  0
VERTEX
  8
BF_
 10
0.0
 20
0.0
 30
0.0
 70
128
 71
169
 72
167
 73
82
 74
84
  0
VERTEX
  8
BF_
 10
0.0
 20
0.0
 30
0.0
 70
128
 71
79
 72
92
 73
146
 74
164
  0
VERTEX
  8
BF_
 10
0.0
 20
0.0
 30
0.0
 70
128
 71
147
 72
93
 73
80
 74
165
  0
VERTEX
  8
BF_
 10
0.0
 20
0.0
 30
0.0
 70
128
 71
92
 72
94
 73
148
 74
146
  0
VERTEX
  8
BF_
 10
0.0
 20
0.0
 30
0.0
 70
128
 71
149
 72
95
 73
93
 74
147
  0
VERTEX
  8
BF_
 10
0.0
 20
0.0
 30
0.0
 70
128
 71
94
 72
96
 73
150
 74
148
  0
VERTEX
  8
BF_
 10
0.0
 20
0.0
 30
0.0
 70
128
 71
151
 72
97
 73
95
 74
149
  0
VERTEX
  8
BF_
 10
0.0
 20
0.0
 30
0.0
 70
128
 71
96
 72
98
 73
152
 74
150
  0
VERTEX
  8
BF_
 10
0.0
 20
0.0
 30
0.0
 70
128
 71
153
 72
99
 73
97
 74
151
  0
VERTEX
  8
BF_
 10
0.0
 20
0.0
 30
0.0
 70
128
 71
98
 72
100
 73
154
 74
152
  0
VERTEX
  8
BF_
 10
0.0
 20
0.0
 30
0.0
 70
128
 71
155
 72
101
 73
99
 74
153
  0
VERTEX
  8
BF_
 10
0.0
 20
0.0
 30
0.0
 70
128
 71
100
 72
102
 73
156
 74
154
  0
VERTEX
  8
BF_
 10
0.0
 20
0.0
 30
0.0
 70
128
 71
157
 72
103
 73
101
 74
155
  0
VERTEX
  8
BF_
 10
0.0
 20
0.0
 30
0.0
 70
128
 71
102
 72
104
 73
158
 74
156
  0
VERTEX
  8
BF_
 10
0.0
 20
0.0
 30
0.0
 70
128
 71
159
 72
105
 73
103
 74
157
  0
VERTEX
  8
BF_
 10
0.0
 20
0.0
 30
0.0
 70
128
 71
104
 72
106
 73
160
 74
158
  0
VERTEX
  8
BF_
 10
0.0
 20
0.0
 30
0.0
 70
128
 71
161
 72
107
 73
105
 74
159
  0
VERTEX
  8
BF_
 10
0.0
 20
0.0
 30
0.0
 70
128
 71
106
 72
108
 73
162
 74
160
  0
VERTEX
  8
BF_
 10
0.0
 20
0.0
 30
0.0
 70
128
 71
163
 72
109
 73
107
 74
161
  0
VERTEX
  8
BF_
 10
0.0
 20
0.0
 30
0.0
 70
128
 71
108
 72
67
 73
68
 74
162
  0
VERTEX
  8
BF_
 10
0.0
 20
0.0
 30
0.0
 70
128
 71
68
 72
67
 73
109
 74
163
  0
VERTEX
  8
BF_
 10
0.0
 20
0.0
 30
0.0
 70
128
 71
110
 72
128
 73
160
 74
162
  0
VERTEX
  8
BF_
 10
0.0
 20
0.0
 30
0.0
 70
128
 71
161
 72
129
 73
111
 74
163
  0
VERTEX
  8
BF_
 10
0.0
 20
0.0
 30
0.0
 70
128
 71
128
 72
179
 73
158
 74
160
  0
VERTEX
  8
BF_
 10
0.0
 20
0.0
 30
0.0
 70
128
 71
159
 72
180
 73
129
 74
161
  0
VERTEX
  8
BF_
 10
0.0
 20
0.0
 30
0.0
 70
128
 71
126
 72
156
 73
158
 74
179
  0
VERTEX
  8
BF_
 10
0.0
 20
0.0
 30
0.0
 70
128
 71
159
 72
157
 73
127
 74
180
  0
VERTEX
  8
BF_
 10
0.0
 20
0.0
 30
0.0
 70
128
 71
124
 72
154
 73
156
 74
126
  0
VERTEX
  8
BF_
 10
0.0
 20
0.0
 30
0.0
 70
128
 71
157
 72
155
 73
125
 74
127
  0
VERTEX
  8
BF_
 10
0.0
 20
0.0
 30
0.0
 70
128
 71
122
 72
152
 73
154
 74
124
  0
VERTEX
  8
BF_
 10
0.0
 20
0.0
 30
0.0
 70
128
 71
155
 72
153
 73
123
 74
125
  0
VERTEX
  8
BF_
 10
0.0
 20
0.0
 30
0.0
 70
128
 71
120
 72
150
 73
152
 74
122
  0
VERTEX
  8
BF_
 10
0.0
 20
0.0
 30
0.0
 70
128
 71
153
 72
151
 73
121
 74
123
  0
VERTEX
  8
BF_
 10
0.0
 20
0.0
 30
0.0
 70
128
 71
118
 72
148
 73
150
 74
120
  0
VERTEX
  8
BF_
 10
0.0
 20
0.0
 30
0.0
 70
128
 71
151
 72
149
 73
119
 74
121
  0
VERTEX
  8
BF_
 10
0.0
 20
0.0
 30
0.0
 70
128
 71
116
 72
146
 73
148
 74
118
  0
VERTEX
  8
BF_
 10
0.0
 20
0.0
 30
0.0
 70
128
 71
149
 72
147
 73
117
 74
119
  0
VERTEX
  8
BF_
 10
0.0
 20
0.0
 30
0.0
 70
128
 71
114
 72
164
 73
146
 74
116
  0
VERTEX
  8
BF_
 10
0.0
 20
0.0
 30
0.0
 70
128
 71
147
 72
165
 73
115
 74
117
  0
VERTEX
  8
BF_
 10
0.0
 20
0.0
 30
0.0
 70
128
 71
114
 72
181
 73
177
 74
164
  0
VERTEX
  8
BF_
 10
0.0
 20
0.0
 30
0.0
 70
128
 71
177
 72
182
 73
115
 74
165
  0
VERTEX
  8
BF_
 10
0.0
 20
0.0
 30
0.0
 70
128
 71
110
 72
162
 73
68
 74
112
  0
VERTEX
  8
BF_
 10
0.0
 20
0.0
 30
0.0
 70
128
 71
68
 72
163
 73
111
 74
113
  0
VERTEX
  8
BF_
 10
0.0
 20
0.0
 30
0.0
 70
128
 71
112
 72
68
 73
178
 74
183
  0
VERTEX
  8
BF_
 10
0.0
 20
0.0
 30
0.0
 70
128
 71
178
 72
68
 73
113
 74
184
  0
VERTEX
  8
BF_
 10
0.0
 20
0.0
 30
0.0
 70
128
 71
177
 72
181
 73
183
 74
178
  0
VERTEX
  8
BF_
 10
0.0
 20
0.0
 30
0.0
 70
128
 71
184
 72
182
 73
177
 74
178
  0
VERTEX
  8
BF_
 10
0.0
 20
0.0
 30
0.0
 70
128
 71
135
 72
137
 73
176
 74
174
  0
VERTEX
  8
BF_
 10
0.0
 20
0.0
 30
0.0
 70
128
 71
176
 72
137
 73
136
 74
175
  0
VERTEX
  8
BF_
 10
0.0
 20
0.0
 30
0.0
 70
128
 71
133
 72
135
 73
174
 74
172
  0
VERTEX
  8
BF_
 10
0.0
 20
0.0
 30
0.0
 70
128
 71
175
 72
136
 73
134
 74
173
  0
VERTEX
  8
BF_
 10
0.0
 20
0.0
 30
0.0
 70
128
 71
131
 72
133
 73
172
 74
170
  0
VERTEX
  8
BF_
 10
0.0
 20
0.0
 30
0.0
 70
128
 71
173
 72
134
 73
132
 74
171
  0
VERTEX
  8
BF_
 10
0.0
 20
0.0
 30
0.0
 70
128
 71
166
 72
187
 73
185
 74
168
  0
VERTEX
  8
BF_
 10
0.0
 20
0.0
 30
0.0
 70
128
 71
186
 72
188
 73
167
 74
169
  0
VERTEX
  8
BF_
 10
0.0
 20
0.0
 30
0.0
 70
128
 71
131
 72
170
 73
168
 74
185
  0
VERTEX
  8
BF_
 10
0.0
 20
0.0
 30
0.0
 70
128
 71
169
 72
171
 73
132
 74
186
  0
VERTEX
  8
BF_
 10
0.0
 20
0.0
 30
0.0
 70
128
 71
144
 72
190
 73
189
 74
187
  0
VERTEX
  8
BF_
 10
0.0
 20
0.0
 30
0.0
 70
128
 71
189
 72
190
 73
145
 74
188
  0
VERTEX
  8
BF_
 10
0.0
 20
0.0
 30
0.0
 70
128
 71
185
 72
187
 73
189
 74
69
  0
VERTEX
  8
BF_
 10
0.0
 20
0.0
 30
0.0
 70
128
 71
189
 72
188
 73
186
 74
69
  0
VERTEX
  8
BF_
 10
0.0
 20
0.0
 30
0.0
 70
128
 71
130
 72
131
 73
185
 74
69
  0
VERTEX
  8
BF_
 10
0.0
 20
0.0
 30
0.0
 70
128
 71
186
 72
132
 73
130
 74
69
  0
VERTEX
  8
BF_
 10
0.0
 20
0.0
 30
0.0
 70
128
 71
142
 72
193
 73
191
 74
144
  0
VERTEX
  8
BF_
 10
0.0
 20
0.0
 30
0.0
 70
128
 71
192
 72
194
 73
143
 74
145
  0
VERTEX
  8
BF_
 10
0.0
 20
0.0
 30
0.0
 70
128
 71
140
 72
195
 73
193
 74
142
  0
VERTEX
  8
BF_
 10
0.0
 20
0.0
 30
0.0
 70
128
 71
194
 72
196
 73
141
 74
143
  0
VERTEX
  8
BF_
 10
0.0
 20
0.0
 30
0.0
 70
128
 71
139
 72
197
 73
195
 74
140
  0
VERTEX
  8
BF_
 10
0.0
 20
0.0
 30
0.0
 70
128
 71
196
 72
198
 73
139
 74
141
  0
VERTEX
  8
BF_
 10
0.0
 20
0.0
 30
0.0
 70
128
 71
138
 72
71
 73
197
 74
139
  0
VERTEX
  8
BF_
 10
0.0
 20
0.0
 30
0.0
 70
128
 71
198
 72
71
 73
138
 74
139
  0
VERTEX
  8
BF_
 10
0.0
 20
0.0
 30
0.0
 70
128
 71
190
 72
144
 73
191
 74
70
  0
VERTEX
  8
BF_
 10
0.0
 20
0.0
 30
0.0
 70
128
 71
192
 72
145
 73
190
 74
70
  0
VERTEX
  8
BF_
 10
0.0
 20
0.0
 30
0.0
 70
128
 71
70
 72
191
 73
206
 74
208
  0
VERTEX
  8
BF_
 10
0.0
 20
0.0
 30
0.0
 70
128
 71
207
 72
192
 73
70
 74
208
  0
VERTEX
  8
BF_
 10
0.0
 20
0.0
 30
0.0
 70
128
 71
71
 72
199
 73
200
 74
197
  0
VERTEX
  8
BF_
 10
0.0
 20
0.0
 30
0.0
 70
128
 71
201
 72
199
 73
71
 74
198
  0
VERTEX
  8
BF_
 10
0.0
 20
0.0
 30
0.0
 70
128
 71
197
 72
200
 73
202
 74
195
  0
VERTEX
  8
BF_
 10
0.0
 20
0.0
 30
0.0
 70
128
 71
203
 72
201
 73
198
 74
196
  0
VERTEX
  8
BF_
 10
0.0
 20
0.0
 30
0.0
 70
128
 71
195
 72
202
 73
204
 74
193
  0
VERTEX
  8
BF_
 10
0.0
 20
0.0
 30
0.0
 70
128
 71
205
 72
203
 73
196
 74
194
  0
VERTEX
  8
BF_
 10
0.0
 20
0.0
 30
0.0
 70
128
 71
193
 72
204
 73
206
 74
191
  0
VERTEX
  8
BF_
 10
0.0
 20
0.0
 30
0.0
 70
128
 71
207
 72
205
 73
194
 74
192
  0
VERTEX
  8
BF_
 10
0.0
 20
0.0
 30
0.0
 70
128
 71
199
 72
204
 73
202
 74
200
  0
VERTEX
  8
BF_
 10
0.0
 20
0.0
 30
0.0
 70
128
 71
203
 72
205
 73
199
 74
201
  0
VERTEX
  8
BF_
 10
0.0
 20
0.0
 30
0.0
 70
128
 71
199
 72
208
 73
206
 74
204
  0
VERTEX
  8
BF_
 10
0.0
 20
0.0
 30
0.0
 70
128
 71
207
 72
208
 73
199
 74
205
  0
VERTEX
  8
BF_
 10
0.0
 20
0.0
 30
0.0
 70
128
 71
139
 72
140
 73
164
 74
177
  0
VERTEX
  8
BF_
 10
0.0
 20
0.0
 30
0.0
 70
128
 71
165
 72
141
 73
139
 74
177
  0
VERTEX
  8
BF_
 10
0.0
 20
0.0
 30
0.0
 70
128
 71
140
 72
142
 73
211
 74
164
  0
VERTEX
  8
BF_
 10
0.0
 20
0.0
 30
0.0
 70
128
 71
212
 72
143
 73
141
 74
165
  0
VERTEX
  8
BF_
 10
0.0
 20
0.0
 30
0.0
 70
128
 71
142
 72
144
 73
213
 74
211
  0
VERTEX
  8
BF_
 10
0.0
 20
0.0
 30
0.0
 70
128
 71
214
 72
145
 73
143
 74
212
  0
VERTEX
  8
BF_
 10
0.0
 20
0.0
 30
0.0
 70
128
 71
144
 72
187
 73
166
 74
213
  0
VERTEX
  8
BF_
 10
0.0
 20
0.0
 30
0.0
 70
128
 71
167
 72
188
 73
145
 74
214
  0
VERTEX
  8
BF_
 10
0.0
 20
0.0
 30
0.0
 70
128
 71
81
 72
209
 73
213
 74
166
  0
VERTEX
  8
BF_
 10
0.0
 20
0.0
 30
0.0
 70
128
 71
214
 72
210
 73
82
 74
167
  0
VERTEX
  8
BF_
 10
0.0
 20
0.0
 30
0.0
 70
128
 71
209
 72
215
 73
211
 74
213
  0
VERTEX
  8
BF_
 10
0.0
 20
0.0
 30
0.0
 70
128
 71
212
 72
216
 73
210
 74
214
  0
VERTEX
  8
BF_
 10
0.0
 20
0.0
 30
0.0
 70
128
 71
79
 72
164
 73
211
 74
215
  0
VERTEX
  8
BF_
 10
0.0
 20
0.0
 30
0.0
 70
128
 71
212
 72
165
 73
80
 74
216
  0
VERTEX
  8
BF_
 10
0.0
 20
0.0
 30
0.0
 70
128
 71
131
 72
130
 73
72
 74
222
  0
VERTEX
  8
BF_
 10
0.0
 20
0.0
 30
0.0
 70
128
 71
72
 72
130
 73
132
 74
223
  0
VERTEX
  8
BF_
 10
0.0
 20
0.0
 30
0.0
 70
128
 71
133
 72
131
 73
222
 74
220
  0
VERTEX
  8
BF_
 10
0.0
 20
0.0
 30
0.0
 70
128
 71
223
 72
132
 73
134
 74
221
  0
VERTEX
  8
BF_
 10
0.0
 20
0.0
 30
0.0
 70
128
 71
135
 72
133
 73
220
 74
218
  0
VERTEX
  8
BF_
 10
0.0
 20
0.0
 30
0.0
 70
128
 71
221
 72
134
 73
136
 74
219
  0
VERTEX
  8
BF_
 10
0.0
 20
0.0
 30
0.0
 70
128
 71
137
 72
135
 73
218
 74
217
  0
VERTEX
  8
BF_
 10
0.0
 20
0.0
 30
0.0
 70
128
 71
219
 72
136
 73
137
 74
217
  0
VERTEX
  8
BF_
 10
0.0
 20
0.0
 30
0.0
 70
128
 71
217
 72
218
 73
229
 74
231
  0
VERTEX
  8
BF_
 10
0.0
 20
0.0
 30
0.0
 70
128
 71
230
 72
219
 73
217
 74
231
  0
VERTEX
  8
BF_
 10
0.0
 20
0.0
 30
0.0
 70
128
 71
218
 72
220
 73
227
 74
229
  0
VERTEX
  8
BF_
 10
0.0
 20
0.0
 30
0.0
 70
128
 71
228
 72
221
 73
219
 74
230
  0
VERTEX
  8
BF_
 10
0.0
 20
0.0
 30
0.0
 70
128
 71
220
 72
222
 73
225
 74
227
  0
VERTEX
  8
BF_
 10
0.0
 20
0.0
 30
0.0
 70
128
 71
226
 72
223
 73
221
 74
228
  0
VERTEX
  8
BF_
 10
0.0
 20
0.0
 30
0.0
 70
128
 71
222
 72
72
 73
224
 74
225
  0
VERTEX
  8
BF_
 10
0.0
 20
0.0
 30
0.0
 70
128
 71
224
 72
72
 73
223
 74
226
  0
VERTEX
  8
BF_
 10
0.0
 20
0.0
 30
0.0
 70
128
 71
224
 72
231
 73
229
 74
225
  0
VERTEX
  8
BF_
 10
0.0
 20
0.0
 30
0.0
 70
128
 71
230
 72
231
 73
224
 74
226
  0
VERTEX
  8
BF_
 10
0.0
 20
0.0
 30
0.0
 70
128
 71
225
 72
229
 73
227
  0
VERTEX
  8
BF_
 10
0.0
 20
0.0
 30
0.0
 70
128
 71
228
 72
230
 73
226
  0
VERTEX
  8
BF_
 10
0.0
 20
0.0
 30
0.0
 70
128
 71
183
 72
181
 73
234
 74
232
  0
VERTEX
  8
BF_
 10
0.0
 20
0.0
 30
0.0
 70
128
 71
235
 72
182
 73
184
 74
233
  0
VERTEX
  8
BF_
 10
0.0
 20
0.0
 30
0.0
 70
128
 71
112
 72
183
 73
232
 74
254
  0
VERTEX
  8
BF_
 10
0.0
 20
0.0
 30
0.0
 70
128
 71
233
 72
184
 73
113
 74
255
  0
VERTEX
  8
BF_
 10
0.0
 20
0.0
 30
0.0
 70
128
 71
110
 72
112
 73
254
 74
256
  0
VERTEX
  8
BF_
 10
0.0
 20
0.0
 30
0.0
 70
128
 71
255
 72
113
 73
111
 74
257
  0
VERTEX
  8
BF_
 10
0.0
 20
0.0
 30
0.0
 70
128
 71
181
 72
114
 73
252
 74
234
  0
VERTEX
  8
BF_
 10
0.0
 20
0.0
 30
0.0
 70
128
 71
253
 72
115
 73
182
 74
235
  0
VERTEX
  8
BF_
 10
0.0
 20
0.0
 30
0.0
 70
128
 71
114
 72
116
 73
250
 74
252
  0
VERTEX
  8
BF_
 10
0.0
 20
0.0
 30
0.0
 70
128
 71
251
 72
117
 73
115
 74
253
  0
VERTEX
  8
BF_
 10
0.0
 20
0.0
 30
0.0
 70
128
 71
116
 72
118
 73
248
 74
250
  0
VERTEX
  8
BF_
 10
0.0
 20
0.0
 30
0.0
 70
128
 71
249
 72
119
 73
117
 74
251
  0
VERTEX
  8
BF_
 10
0.0
 20
0.0
 30
0.0
 70
128
 71
118
 72
120
 73
246
 74
248
  0
VERTEX
  8
BF_
 10
0.0
 20
0.0
 30
0.0
 70
128
 71
247
 72
121
 73
119
 74
249
  0
VERTEX
  8
BF_
 10
0.0
 20
0.0
 30
0.0
 70
128
 71
120
 72
122
 73
244
 74
246
  0
VERTEX
  8
BF_
 10
0.0
 20
0.0
 30
0.0
 70
128
 71
245
 72
123
 73
121
 74
247
  0
VERTEX
  8
BF_
 10
0.0
 20
0.0
 30
0.0
 70
128
 71
122
 72
124
 73
242
 74
244
  0
VERTEX
  8
BF_
 10
0.0
 20
0.0
 30
0.0
 70
128
 71
243
 72
125
 73
123
 74
245
  0
VERTEX
  8
BF_
 10
0.0
 20
0.0
 30
0.0
 70
128
 71
124
 72
126
 73
240
 74
242
  0
VERTEX
  8
BF_
 10
0.0
 20
0.0
 30
0.0
 70
128
 71
241
 72
127
 73
125
 74
243
  0
VERTEX
  8
BF_
 10
0.0
 20
0.0
 30
0.0
 70
128
 71
126
 72
179
 73
236
 74
240
  0
VERTEX
  8
BF_
 10
0.0
 20
0.0
 30
0.0
 70
128
 71
237
 72
180
 73
127
 74
241
  0
VERTEX
  8
BF_
 10
0.0
 20
0.0
 30
0.0
 70
128
 71
179
 72
128
 73
238
 74
236
  0
VERTEX
  8
BF_
 10
0.0
 20
0.0
 30
0.0
 70
128
 71
239
 72
129
 73
180
 74
237
  0
VERTEX
  8
BF_
 10
0.0
 20
0.0
 30
0.0
 70
128
 71
128
 72
110
 73
256
 74
238
  0
VERTEX
  8
BF_
 10
0.0
 20
0.0
 30
0.0
 70
128
 71
257
 72
111
 73
129
 74
239
  0
VERTEX
  8
BF_
 10
0.0
 20
0.0
 30
0.0
 70
128
 71
238
 72
256
 73
258
 74
276
  0
VERTEX
  8
BF_
 10
0.0
 20
0.0
 30
0.0
 70
128
 71
259
 72
257
 73
239
 74
277
  0
VERTEX
  8
BF_
 10
0.0
 20
0.0
 30
0.0
 70
128
 71
236
 72
238
 73
276
 74
278
  0
VERTEX
  8
BF_
 10
0.0
 20
0.0
 30
0.0
 70
128
 71
277
 72
239
 73
237
 74
279
  0
VERTEX
  8
BF_
 10
0.0
 20
0.0
 30
0.0
 70
128
 71
240
 72
236
 73
278
 74
274
  0
VERTEX
  8
BF_
 10
0.0
 20
0.0
 30
0.0
 70
128
 71
279
 72
237
 73
241
 74
275
  0
VERTEX
  8
BF_
 10
0.0
 20
0.0
 30
0.0
 70
128
 71
242
 72
240
 73
274
 74
272
  0
VERTEX
  8
BF_
 10
0.0
 20
0.0
 30
0.0
 70
128
 71
275
 72
241
 73
243
 74
273
  0
VERTEX
  8
BF_
 10
0.0
 20
0.0
 30
0.0
 70
128
 71
244
 72
242
 73
272
 74
270
  0
VERTEX
  8
BF_
 10
0.0
 20
0.0
 30
0.0
 70
128
 71
273
 72
243
 73
245
 74
271
  0
VERTEX
  8
BF_
 10
0.0
 20
0.0
 30
0.0
 70
128
 71
246
 72
244
 73
270
 74
268
  0
VERTEX
  8
BF_
 10
0.0
 20
0.0
 30
0.0
 70
128
 71
271
 72
245
 73
247
 74
269
  0
VERTEX
  8
BF_
 10
0.0
 20
0.0
 30
0.0
 70
128
 71
248
 72
246
 73
268
 74
266
  0
VERTEX
  8
BF_
 10
0.0
 20
0.0
 30
0.0
 70
128
 71
269
 72
247
 73
249
 74
267
  0
VERTEX
  8
BF_
 10
0.0
 20
0.0
 30
0.0
 70
128
 71
250
 72
248
 73
266
 74
264
  0
VERTEX
  8
BF_
 10
0.0
 20
0.0
 30
0.0
 70
128
 71
267
 72
249
 73
251
 74
265
  0
VERTEX
  8
BF_
 10
0.0
 20
0.0
 30
0.0
 70
128
 71
252
 72
250
 73
264
 74
262
  0
VERTEX
  8
BF_
 10
0.0
 20
0.0
 30
0.0
 70
128
 71
265
 72
251
 73
253
 74
263
  0
VERTEX
  8
BF_
 10
0.0
 20
0.0
 30
0.0
 70
128
 71
234
 72
252
 73
262
 74
280
  0
VERTEX
  8
BF_
 10
0.0
 20
0.0
 30
0.0
 70
128
 71
263
 72
253
 73
235
 74
281
  0
VERTEX
  8
BF_
 10
0.0
 20
0.0
 30
0.0
 70
128
 71
256
 72
254
 73
260
 74
258
  0
VERTEX
  8
BF_
 10
0.0
 20
0.0
 30
0.0
 70
128
 71
261
 72
255
 73
257
 74
259
  0
VERTEX
  8
BF_
 10
0.0
 20
0.0
 30
0.0
 70
128
 71
254
 72
232
 73
282
 74
260
  0
VERTEX
  8
BF_
 10
0.0
 20
0.0
 30
0.0
 70
128
 71
283
 72
233
 73
255
 74
261
  0
VERTEX
  8
BF_
 10
0.0
 20
0.0
 30
0.0
 70
128
 71
232
 72
234
 73
280
 74
282
  0
VERTEX
  8
BF_
 10
0.0
 20
0.0
 30
0.0
 70
128
 71
281
 72
235
 73
233
 74
283
  0
VERTEX
  8
BF_
 10
0.0
 20
0.0
 30
0.0
 70
128
 71
67
 72
108
 73
284
 74
73
  0
VERTEX
  8
BF_
 10
0.0
 20
0.0
 30
0.0
 70
128
 71
285
 72
109
 73
67
 74
73
  0
VERTEX
  8
BF_
 10
0.0
 20
0.0
 30
0.0
 70
128
 71
108
 72
106
 73
286
 74
284
  0
VERTEX
  8
BF_
 10
0.0
 20
0.0
 30
0.0
 70
128
 71
287
 72
107
 73
109
 74
285
  0
VERTEX
  8
BF_
 10
0.0
 20
0.0
 30
0.0
 70
128
 71
106
 72
104
 73
288
 74
286
  0
VERTEX
  8
BF_
 10
0.0
 20
0.0
 30
0.0
 70
128
 71
289
 72
105
 73
107
 74
287
  0
VERTEX
  8
BF_
 10
0.0
 20
0.0
 30
0.0
 70
128
 71
104
 72
102
 73
290
 74
288
  0
VERTEX
  8
BF_
 10
0.0
 20
0.0
 30
0.0
 70
128
 71
291
 72
103
 73
105
 74
289
  0
VERTEX
  8
BF_
 10
0.0
 20
0.0
 30
0.0
 70
128
 71
102
 72
100
 73
292
 74
290
  0
VERTEX
  8
BF_
 10
0.0
 20
0.0
 30
0.0
 70
128
 71
293
 72
101
 73
103
 74
291
  0
VERTEX
  8
BF_
 10
0.0
 20
0.0
 30
0.0
 70
128
 71
100
 72
98
 73
294
 74
292
  0
VERTEX
  8
BF_
 10
0.0
 20
0.0
 30
0.0
 70
128
 71
295
 72
99
 73
101
 74
293
  0
VERTEX
  8
BF_
 10
0.0
 20
0.0
 30
0.0
 70
128
 71
98
 72
96
 73
296
 74
294
  0
VERTEX
  8
BF_
 10
0.0
 20
0.0
 30
0.0
 70
128
 71
297
 72
97
 73
99
 74
295
  0
VERTEX
  8
BF_
 10
0.0
 20
0.0
 30
0.0
 70
128
 71
96
 72
94
 73
298
 74
296
  0
VERTEX
  8
BF_
 10
0.0
 20
0.0
 30
0.0
 70
128
 71
299
 72
95
 73
97
 74
297
  0
VERTEX
  8
BF_
 10
0.0
 20
0.0
 30
0.0
 70
128
 71
94
 72
92
 73
300
 74
298
  0
VERTEX
  8
BF_
 10
0.0
 20
0.0
 30
0.0
 70
128
 71
301
 72
93
 73
95
 74
299
  0
VERTEX
  8
BF_
 10
0.0
 20
0.0
 30
0.0
 70
128
 71
308
 72
309
 73
328
 74
338
  0
VERTEX
  8
BF_
 10
0.0
 20
0.0
 30
0.0
 70
128
 71
329
 72
309
 73
308
 74
339
  0
VERTEX
  8
BF_
 10
0.0
 20
0.0
 30
0.0
 70
128
 71
307
 72
308
 73
338
 74
336
  0
VERTEX
  8
BF_
 10
0.0
 20
0.0
 30
0.0
 70
128
 71
339
 72
308
 73
307
 74
337
  0
VERTEX
  8
BF_
 10
0.0
 20
0.0
 30
0.0
 70
128
 71
306
 72
307
 73
336
 74
340
  0
VERTEX
  8
BF_
 10
0.0
 20
0.0
 30
0.0
 70
128
 71
337
 72
307
 73
306
 74
341
  0
VERTEX
  8
BF_
 10
0.0
 20
0.0
 30
0.0
 70
128
 71
89
 72
91
 73
306
 74
340
  0
VERTEX
  8
BF_
 10
0.0
 20
0.0
 30
0.0
 70
128
 71
306
 72
91
 73
90
 74
341
  0
VERTEX
  8
BF_
 10
0.0
 20
0.0
 30
0.0
 70
128
 71
87
 72
89
 73
340
 74
334
  0
VERTEX
  8
BF_
 10
0.0
 20
0.0
 30
0.0
 70
128
 71
341
 72
90
 73
88
 74
335
  0
VERTEX
  8
BF_
 10
0.0
 20
0.0
 30
0.0
 70
128
 71
85
 72
87
 73
334
 74
330
  0
VERTEX
  8
BF_
 10
0.0
 20
0.0
 30
0.0
 70
128
 71
335
 72
88
 73
86
 74
331
  0
VERTEX
  8
BF_
 10
0.0
 20
0.0
 30
0.0
 70
128
 71
83
 72
85
 73
330
 74
332
  0
VERTEX
  8
BF_
 10
0.0
 20
0.0
 30
0.0
 70
128
 71
331
 72
86
 73
84
 74
333
  0
VERTEX
  8
BF_
 10
0.0
 20
0.0
 30
0.0
 70
128
 71
330
 72
336
 73
338
 74
332
  0
VERTEX
  8
BF_
 10
0.0
 20
0.0
 30
0.0
 70
128
 71
339
 72
337
 73
331
 74
333
  0
VERTEX
  8
BF_
 10
0.0
 20
0.0
 30
0.0
 70
128
 71
330
 72
334
 73
340
 74
336
  0
VERTEX
  8
BF_
 10
0.0
 20
0.0
 30
0.0
 70
128
 71
341
 72
335
 73
331
 74
337
  0
VERTEX
  8
BF_
 10
0.0
 20
0.0
 30
0.0
 70
128
 71
326
 72
332
 73
338
 74
328
  0
VERTEX
  8
BF_
 10
0.0
 20
0.0
 30
0.0
 70
128
 71
339
 72
333
 73
327
 74
329
  0
VERTEX
  8
BF_
 10
0.0
 20
0.0
 30
0.0
 70
128
 71
81
 72
83
 73
332
 74
326
  0
VERTEX
  8
BF_
 10
0.0
 20
0.0
 30
0.0
 70
128
 71
333
 72
84
 73
82
 74
327
  0
VERTEX
  8
BF_
 10
0.0
 20
0.0
 30
0.0
 70
128
 71
209
 72
342
 73
344
 74
215
  0
VERTEX
  8
BF_
 10
0.0
 20
0.0
 30
0.0
 70
128
 71
345
 72
343
 73
210
 74
216
  0
VERTEX
  8
BF_
 10
0.0
 20
0.0
 30
0.0
 70
128
 71
81
 72
326
 73
342
 74
209
  0
VERTEX
  8
BF_
 10
0.0
 20
0.0
 30
0.0
 70
128
 71
343
 72
327
 73
82
 74
210
  0
VERTEX
  8
BF_
 10
0.0
 20
0.0
 30
0.0
 70
128
 71
79
 72
215
 73
344
 74
346
  0
VERTEX
  8
BF_
 10
0.0
 20
0.0
 30
0.0
 70
128
 71
345
 72
216
 73
80
 74
347
  0
VERTEX
  8
BF_
 10
0.0
 20
0.0
 30
0.0
 70
128
 71
79
 72
346
 73
300
 74
92
  0
VERTEX
  8
BF_
 10
0.0
 20
0.0
 30
0.0
 70
128
 71
301
 72
347
 73
80
 74
93
  0
VERTEX
  8
BF_
 10
0.0
 20
0.0
 30
0.0
 70
128
 71
77
 72
324
 73
352
 74
304
  0
VERTEX
  8
BF_
 10
0.0
 20
0.0
 30
0.0
 70
128
 71
353
 72
325
 73
77
 74
304
  0
VERTEX
  8
BF_
 10
0.0
 20
0.0
 30
0.0
 70
128
 71
304
 72
352
 73
350
 74
78
  0
VERTEX
  8
BF_
 10
0.0
 20
0.0
 30
0.0
 70
128
 71
351
 72
353
 73
304
 74
78
  0
VERTEX
  8
BF_
 10
0.0
 20
0.0
 30
0.0
 70
128
 71
78
 72
350
 73
348
 74
305
  0
VERTEX
  8
BF_
 10
0.0
 20
0.0
 30
0.0
 70
128
 71
349
 72
351
 73
78
 74
305
  0
VERTEX
  8
BF_
 10
0.0
 20
0.0
 30
0.0
 70
128
 71
305
 72
348
 73
328
 74
309
  0
VERTEX
  8
BF_
 10
0.0
 20
0.0
 30
0.0
 70
128
 71
329
 72
349
 73
305
 74
309
  0
VERTEX
  8
BF_
 10
0.0
 20
0.0
 30
0.0
 70
128
 71
326
 72
328
 73
348
 74
342
  0
VERTEX
  8
BF_
 10
0.0
 20
0.0
 30
0.0
 70
128
 71
349
 72
329
 73
327
 74
343
  0
VERTEX
  8
BF_
 10
0.0
 20
0.0
 30
0.0
 70
128
 71
296
 72
298
 73
318
 74
310
  0
VERTEX
  8
BF_
 10
0.0
 20
0.0
 30
0.0
 70
128
 71
319
 72
299
 73
297
 74
311
  0
VERTEX
  8
BF_
 10
0.0
 20
0.0
 30
0.0
 70
128
 71
76
 72
316
 73
324
 74
77
  0
VERTEX
  8
BF_
 10
0.0
 20
0.0
 30
0.0
 70
128
 71
325
 72
317
 73
76
 74
77
  0
VERTEX
  8
BF_
 10
0.0
 20
0.0
 30
0.0
 70
128
 71
302
 72
358
 73
356
 74
303
  0
VERTEX
  8
BF_
 10
0.0
 20
0.0
 30
0.0
 70
128
 71
357
 72
359
 73
302
 74
303
  0
VERTEX
  8
BF_
 10
0.0
 20
0.0
 30
0.0
 70
128
 71
303
 72
356
 73
354
 74
75
  0
VERTEX
  8
BF_
 10
0.0
 20
0.0
 30
0.0
 70
128
 71
355
 72
357
 73
303
 74
75
  0
VERTEX
  8
BF_
 10
0.0
 20
0.0
 30
0.0
 70
128
 71
75
 72
354
 73
316
 74
76
  0
VERTEX
  8
BF_
 10
0.0
 20
0.0
 30
0.0
 70
128
 71
317
 72
355
 73
75
 74
76
  0
VERTEX
  8
BF_
 10
0.0
 20
0.0
 30
0.0
 70
128
 71
292
 72
294
 73
362
 74
364
  0
VERTEX
  8
BF_
 10
0.0
 20
0.0
 30
0.0
 70
128
 71
363
 72
295
 73
293
 74
365
  0
VERTEX
  8
BF_
 10
0.0
 20
0.0
 30
0.0
 70
128
 71
364
 72
362
 73
368
 74
366
  0
VERTEX
  8
BF_
 10
0.0
 20
0.0
 30
0.0
 70
128
 71
369
 72
363
 73
365
 74
367
  0
VERTEX
  8
BF_
 10
0.0
 20
0.0
 30
0.0
 70
128
 71
366
 72
368
 73
370
 74
372
  0
VERTEX
  8
BF_
 10
0.0
 20
0.0
 30
0.0
 70
128
 71
371
 72
369
 73
367
 74
373
  0
VERTEX
  8
BF_
 10
0.0
 20
0.0
 30
0.0
 70
128
 71
372
 72
370
 73
376
 74
374
  0
VERTEX
  8
BF_
 10
0.0
 20
0.0
 30
0.0
 70
128
 71
377
 72
371
 73
373
 74
375
  0
VERTEX
  8
BF_
 10
0.0
 20
0.0
 30
0.0
 70
128
 71
314
 72
378
 73
374
 74
376
  0
VERTEX
  8
BF_
 10
0.0
 20
0.0
 30
0.0
 70
128
 71
375
 72
379
 73
315
 74
377
  0
VERTEX
  8
BF_
 10
0.0
 20
0.0
 30
0.0
 70
128
 71
316
 72
354
 73
374
 74
378
  0
VERTEX
  8
BF_
 10
0.0
 20
0.0
 30
0.0
 70
128
 71
375
 72
355
 73
317
 74
379
  0
VERTEX
  8
BF_
 10
0.0
 20
0.0
 30
0.0
 70
128
 71
354
 72
356
 73
372
 74
374
  0
VERTEX
  8
BF_
 10
0.0
 20
0.0
 30
0.0
 70
128
 71
373
 72
357
 73
355
 74
375
  0
VERTEX
  8
BF_
 10
0.0
 20
0.0
 30
0.0
 70
128
 71
356
 72
358
 73
366
 74
372
  0
VERTEX
  8
BF_
 10
0.0
 20
0.0
 30
0.0
 70
128
 71
367
 72
359
 73
357
 74
373
  0
VERTEX
  8
BF_
 10
0.0
 20
0.0
 30
0.0
 70
128
 71
358
 72
360
 73
364
 74
366
  0
VERTEX
  8
BF_
 10
0.0
 20
0.0
 30
0.0
 70
128
 71
365
 72
361
 73
359
 74
367
  0
VERTEX
  8
BF_
 10
0.0
 20
0.0
 30
0.0
 70
128
 71
290
 72
292
 73
364
 74
360
  0
VERTEX
  8
BF_
 10
0.0
 20
0.0
 30
0.0
 70
128
 71
365
 72
293
 73
291
 74
361
  0
VERTEX
  8
BF_
 10
0.0
 20
0.0
 30
0.0
 70
128
 71
74
 72
360
 73
358
 74
302
  0
VERTEX
  8
BF_
 10
0.0
 20
0.0
 30
0.0
 70
128
 71
359
 72
361
 73
74
 74
302
  0
VERTEX
  8
BF_
 10
0.0
 20
0.0
 30
0.0
 70
128
 71
284
 72
286
 73
288
 74
290
  0
VERTEX
  8
BF_
 10
0.0
 20
0.0
 30
0.0
 70
128
 71
289
 72
287
 73
285
 74
291
  0
VERTEX
  8
BF_
 10
0.0
 20
0.0
 30
0.0
 70
128
 71
284
 72
290
 73
360
 74
74
  0
VERTEX
  8
BF_
 10
0.0
 20
0.0
 30
0.0
 70
128
 71
361
 72
291
 73
285
 74
74
  0
VERTEX
  8
BF_
 10
0.0
 20
0.0
 30
0.0
 70
128
 71
73
 72
284
 73
74
  0
VERTEX
  8
BF_
 10
0.0
 20
0.0
 30
0.0
 70
128
 71
74
 72
285
 73
73
  0
VERTEX
  8
BF_
 10
0.0
 20
0.0
 30
0.0
 70
128
 71
294
 72
296
 73
310
 74
362
  0
VERTEX
  8
BF_
 10
0.0
 20
0.0
 30
0.0
 70
128
 71
311
 72
297
 73
295
 74
363
  0
VERTEX
  8
BF_
 10
0.0
 20
0.0
 30
0.0
 70
128
 71
310
 72
312
 73
368
 74
362
  0
VERTEX
  8
BF_
 10
0.0
 20
0.0
 30
0.0
 70
128
 71
369
 72
313
 73
311
 74
363
  0
VERTEX
  8
BF_
 10
0.0
 20
0.0
 30
0.0
 70
128
 71
312
 72
382
 73
370
 74
368
  0
VERTEX
  8
BF_
 10
0.0
 20
0.0
 30
0.0
 70
128
 71
371
 72
383
 73
313
 74
369
  0
VERTEX
  8
BF_
 10
0.0
 20
0.0
 30
0.0
 70
128
 71
314
 72
376
 73
370
 74
382
  0
VERTEX
  8
BF_
 10
0.0
 20
0.0
 30
0.0
 70
128
 71
371
 72
377
 73
315
 74
383
  0
VERTEX
  8
BF_
 10
0.0
 20
0.0
 30
0.0
 70
128
 71
348
 72
350
 73
386
 74
384
  0
VERTEX
  8
BF_
 10
0.0
 20
0.0
 30
0.0
 70
128
 71
387
 72
351
 73
349
 74
385
  0
VERTEX
  8
BF_
 10
0.0
 20
0.0
 30
0.0
 70
128
 71
318
 72
384
 73
386
 74
320
  0
VERTEX
  8
BF_
 10
0.0
 20
0.0
 30
0.0
 70
128
 71
387
 72
385
 73
319
 74
321
  0
VERTEX
  8
BF_
 10
0.0
 20
0.0
 30
0.0
 70
128
 71
298
 72
300
 73
384
 74
318
  0
VERTEX
  8
BF_
 10
0.0
 20
0.0
 30
0.0
 70
128
 71
385
 72
301
 73
299
 74
319
  0
VERTEX
  8
BF_
 10
0.0
 20
0.0
 30
0.0
 70
128
 71
300
 72
344
 73
342
 74
384
  0
VERTEX
  8
BF_
 10
0.0
 20
0.0
 30
0.0
 70
128
 71
343
 72
345
 73
301
 74
385
  0
VERTEX
  8
BF_
 10
0.0
 20
0.0
 30
0.0
 70
128
 71
342
 72
348
 73
384
  0
VERTEX
  8
BF_
 10
0.0
 20
0.0
 30
0.0
 70
128
 71
385
 72
349
 73
343
  0
VERTEX
  8
BF_
 10
0.0
 20
0.0
 30
0.0
 70
128
 71
300
 72
346
 73
344
  0
VERTEX
  8
BF_
 10
0.0
 20
0.0
 30
0.0
 70
128
 71
345
 72
347
 73
301
  0
VERTEX
  8
BF_
 10
0.0
 20
0.0
 30
0.0
 70
128
 71
314
 72
322
 73
380
 74
378
  0
VERTEX
  8
BF_
 10
0.0
 20
0.0
 30
0.0
 70
128
 71
381
 72
323
 73
315
 74
379
  0
VERTEX
  8
BF_
 10
0.0
 20
0.0
 30
0.0
 70
128
 71
316
 72
378
 73
380
 74
324
  0
VERTEX
  8
BF_
 10
0.0
 20
0.0
 30
0.0
 70
128
 71
381
 72
379
 73
317
 74
325
  0
VERTEX
  8
BF_
 10
0.0
 20
0.0
 30
0.0
 70
128
 71
320
 72
386
 73
380
 74
322
  0
VERTEX
  8
BF_
 10
0.0
 20
0.0
 30
0.0
 70
128
 71
381
 72
387
 73
321
 74
323
  0
VERTEX
  8
BF_
 10
0.0
 20
0.0
 30
0.0
 70
128
 71
350
 72
352
 73
380
 74
386
  0
VERTEX
  8
BF_
 10
0.0
 20
0.0
 30
0.0
 70
128
 71
381
 72
353
 73
351
 74
387
  0
VERTEX
  8
BF_
 10
0.0
 20
0.0
 30
0.0
 70
128
 71
324
 72
380
 73
352
  0
VERTEX
  8
BF_
 10
0.0
 20
0.0
 30
0.0
 70
128
 71
353
 72
381
 73
325
  0
VERTEX
  8
BF_
 10
0.0
 20
0.0
 30
0.0
 70
128
 71
400
 72
388
 73
414
 74
402
  0
VERTEX
  8
BF_
 10
0.0
 20
0.0
 30
0.0
 70
128
 71
415
 72
389
 73
401
 74
403
  0
VERTEX
  8
BF_
 10
0.0
 20
0.0
 30
0.0
 70
128
 71
400
 72
402
 73
404
 74
398
  0
VERTEX
  8
BF_
 10
0.0
 20
0.0
 30
0.0
 70
128
 71
405
 72
403
 73
401
 74
399
  0
VERTEX
  8
BF_
 10
0.0
 20
0.0
 30
0.0
 70
128
 71
398
 72
404
 73
406
 74
396
  0
VERTEX
  8
BF_
 10
0.0
 20
0.0
 30
0.0
 70
128
 71
407
 72
405
 73
399
 74
397
  0
VERTEX
  8
BF_
 10
0.0
 20
0.0
 30
0.0
 70
128
 71
396
 72
406
 73
408
 74
394
  0
VERTEX
  8
BF_
 10
0.0
 20
0.0
 30
0.0
 70
128
 71
409
 72
407
 73
397
 74
395
  0
VERTEX
  8
BF_
 10
0.0
 20
0.0
 30
0.0
 70
128
 71
394
 72
408
 73
410
 74
392
  0
VERTEX
  8
BF_
 10
0.0
 20
0.0
 30
0.0
 70
128
 71
411
 72
409
 73
395
 74
393
  0
VERTEX
  8
BF_
 10
0.0
 20
0.0
 30
0.0
 70
128
 71
392
 72
410
 73
412
 74
390
  0
VERTEX
  8
BF_
 10
0.0
 20
0.0
 30
0.0
 70
128
 71
413
 72
411
 73
393
 74
391
  0
VERTEX
  8
BF_
 10
0.0
 20
0.0
 30
0.0
 70
128
 71
410
 72
420
 73
418
 74
412
  0
VERTEX
  8
BF_
 10
0.0
 20
0.0
 30
0.0
 70
128
 71
419
 72
421
 73
411
 74
413
  0
VERTEX
  8
BF_
 10
0.0
 20
0.0
 30
0.0
 70
128
 71
408
 72
422
 73
420
 74
410
  0
VERTEX
  8
BF_
 10
0.0
 20
0.0
 30
0.0
 70
128
 71
421
 72
423
 73
409
 74
411
  0
VERTEX
  8
BF_
 10
0.0
 20
0.0
 30
0.0
 70
128
 71
406
 72
424
 73
422
 74
408
  0
VERTEX
  8
BF_
 10
0.0
 20
0.0
 30
0.0
 70
128
 71
423
 72
425
 73
407
 74
409
  0
VERTEX
  8
BF_
 10
0.0
 20
0.0
 30
0.0
 70
128
 71
404
 72
426
 73
424
 74
406
  0
VERTEX
  8
BF_
 10
0.0
 20
0.0
 30
0.0
 70
128
 71
425
 72
427
 73
405
 74
407
  0
VERTEX
  8
BF_
 10
0.0
 20
0.0
 30
0.0
 70
128
 71
402
 72
428
 73
426
 74
404
  0
VERTEX
  8
BF_
 10
0.0
 20
0.0
 30
0.0
 70
128
 71
427
 72
429
 73
403
 74
405
  0
VERTEX
  8
BF_
 10
0.0
 20
0.0
 30
0.0
 70
128
 71
402
 72
414
 73
416
 74
428
  0
VERTEX
  8
BF_
 10
0.0
 20
0.0
 30
0.0
 70
128
 71
417
 72
415
 73
403
 74
429
  0
VERTEX
  8
BF_
 10
0.0
 20
0.0
 30
0.0
 70
128
 71
318
 72
320
 73
444
 74
442
  0
VERTEX
  8
BF_
 10
0.0
 20
0.0
 30
0.0
 70
128
 71
445
 72
321
 73
319
 74
443
  0
VERTEX
  8
BF_
 10
0.0
 20
0.0
 30
0.0
 70
128
 71
320
 72
390
 73
412
 74
444
  0
VERTEX
  8
BF_
 10
0.0
 20
0.0
 30
0.0
 70
128
 71
413
 72
391
 73
321
 74
445
  0
VERTEX
  8
BF_
 10
0.0
 20
0.0
 30
0.0
 70
128
 71
310
 72
318
 73
442
 74
312
  0
VERTEX
  8
BF_
 10
0.0
 20
0.0
 30
0.0
 70
128
 71
443
 72
319
 73
311
 74
313
  0
VERTEX
  8
BF_
 10
0.0
 20
0.0
 30
0.0
 70
128
 71
382
 72
430
 73
414
 74
388
  0
VERTEX
  8
BF_
 10
0.0
 20
0.0
 30
0.0
 70
128
 71
415
 72
431
 73
383
 74
389
  0
VERTEX
  8
BF_
 10
0.0
 20
0.0
 30
0.0
 70
128
 71
412
 72
418
 73
440
 74
444
  0
VERTEX
  8
BF_
 10
0.0
 20
0.0
 30
0.0
 70
128
 71
441
 72
419
 73
413
 74
445
  0
VERTEX
  8
BF_
 10
0.0
 20
0.0
 30
0.0
 70
128
 71
438
 72
446
 73
444
 74
440
  0
VERTEX
  8
BF_
 10
0.0
 20
0.0
 30
0.0
 70
128
 71
445
 72
447
 73
439
 74
441
  0
VERTEX
  8
BF_
 10
0.0
 20
0.0
 30
0.0
 70
128
 71
434
 72
446
 73
438
 74
436
  0
VERTEX
  8
BF_
 10
0.0
 20
0.0
 30
0.0
 70
128
 71
439
 72
447
 73
435
 74
437
  0
VERTEX
  8
BF_
 10
0.0
 20
0.0
 30
0.0
 70
128
 71
432
 72
448
 73
446
 74
434
  0
VERTEX
  8
BF_
 10
0.0
 20
0.0
 30
0.0
 70
128
 71
447
 72
449
 73
433
 74
435
  0
VERTEX
  8
BF_
 10
0.0
 20
0.0
 30
0.0
 70
128
 71
430
 72
448
 73
432
 74
450
  0
VERTEX
  8
BF_
 10
0.0
 20
0.0
 30
0.0
 70
128
 71
433
 72
449
 73
431
 74
451
  0
VERTEX
  8
BF_
 10
0.0
 20
0.0
 30
0.0
 70
128
 71
414
 72
430
 73
450
 74
416
  0
VERTEX
  8
BF_
 10
0.0
 20
0.0
 30
0.0
 70
128
 71
451
 72
431
 73
415
 74
417
  0
VERTEX
  8
BF_
 10
0.0
 20
0.0
 30
0.0
 70
128
 71
312
 72
448
 73
430
 74
382
  0
VERTEX
  8
BF_
 10
0.0
 20
0.0
 30
0.0
 70
128
 71
431
 72
449
 73
313
 74
383
  0
VERTEX
  8
BF_
 10
0.0
 20
0.0
 30
0.0
 70
128
 71
312
 72
442
 73
446
 74
448
  0
VERTEX
  8
BF_
 10
0.0
 20
0.0
 30
0.0
 70
128
 71
447
 72
443
 73
313
 74
449
  0
VERTEX
  8
BF_
 10
0.0
 20
0.0
 30
0.0
 70
128
 71
442
 72
444
 73
446
  0
VERTEX
  8
BF_
 10
0.0
 20
0.0
 30
0.0
 70
128
 71
447
 72
445
 73
443
  0
VERTEX
  8
BF_
 10
0.0
 20
0.0
 30
0.0
 70
128
 71
416
 72
450
 73
452
 74
476
  0
VERTEX
  8
BF_
 10
0.0
 20
0.0
 30
0.0
 70
128
 71
453
 72
451
 73
417
 74
477
  0
VERTEX
  8
BF_
 10
0.0
 20
0.0
 30
0.0
 70
128
 71
450
 72
432
 73
462
 74
452
  0
VERTEX
  8
BF_
 10
0.0
 20
0.0
 30
0.0
 70
128
 71
463
 72
433
 73
451
 74
453
  0
VERTEX
  8
BF_
 10
0.0
 20
0.0
 30
0.0
 70
128
 71
432
 72
434
 73
460
 74
462
  0
VERTEX
  8
BF_
 10
0.0
 20
0.0
 30
0.0
 70
128
 71
461
 72
435
 73
433
 74
463
  0
VERTEX
  8
BF_
 10
0.0
 20
0.0
 30
0.0
 70
128
 71
434
 72
436
 73
458
 74
460
  0
VERTEX
  8
BF_
 10
0.0
 20
0.0
 30
0.0
 70
128
 71
459
 72
437
 73
435
 74
461
  0
VERTEX
  8
BF_
 10
0.0
 20
0.0
 30
0.0
 70
128
 71
436
 72
438
 73
456
 74
458
  0
VERTEX
  8
BF_
 10
0.0
 20
0.0
 30
0.0
 70
128
 71
457
 72
439
 73
437
 74
459
  0
VERTEX
  8
BF_
 10
0.0
 20
0.0
 30
0.0
 70
128
 71
438
 72
440
 73
454
 74
456
  0
VERTEX
  8
BF_
 10
0.0
 20
0.0
 30
0.0
 70
128
 71
455
 72
441
 73
439
 74
457
  0
VERTEX
  8
BF_
 10
0.0
 20
0.0
 30
0.0
 70
128
 71
440
 72
418
 73
474
 74
454
  0
VERTEX
  8
BF_
 10
0.0
 20
0.0
 30
0.0
 70
128
 71
475
 72
419
 73
441
 74
455
  0
VERTEX
  8
BF_
 10
0.0
 20
0.0
 30
0.0
 70
128
 71
428
 72
416
 73
476
 74
464
  0
VERTEX
  8
BF_
 10
0.0
 20
0.0
 30
0.0
 70
128
 71
477
 72
417
 73
429
 74
465
  0
VERTEX
  8
BF_
 10
0.0
 20
0.0
 30
0.0
 70
128
 71
426
 72
428
 73
464
 74
466
  0
VERTEX
  8
BF_
 10
0.0
 20
0.0
 30
0.0
 70
128
 71
465
 72
429
 73
427
 74
467
  0
VERTEX
  8
BF_
 10
0.0
 20
0.0
 30
0.0
 70
128
 71
424
 72
426
 73
466
 74
468
  0
VERTEX
  8
BF_
 10
0.0
 20
0.0
 30
0.0
 70
128
 71
467
 72
427
 73
425
 74
469
  0
VERTEX
  8
BF_
 10
0.0
 20
0.0
 30
0.0
 70
128
 71
422
 72
424
 73
468
 74
470
  0
VERTEX
  8
BF_
 10
0.0
 20
0.0
 30
0.0
 70
128
 71
469
 72
425
 73
423
 74
471
  0
VERTEX
  8
BF_
 10
0.0
 20
0.0
 30
0.0
 70
128
 71
420
 72
422
 73
470
 74
472
  0
VERTEX
  8
BF_
 10
0.0
 20
0.0
 30
0.0
 70
128
 71
471
 72
423
 73
421
 74
473
  0
VERTEX
  8
BF_
 10
0.0
 20
0.0
 30
0.0
 70
128
 71
418
 72
420
 73
472
 74
474
  0
VERTEX
  8
BF_
 10
0.0
 20
0.0
 30
0.0
 70
128
 71
473
 72
421
 73
419
 74
475
  0
VERTEX
  8
BF_
 10
0.0
 20
0.0
 30
0.0
 70
128
 71
458
 72
456
 73
480
 74
478
  0
VERTEX
  8
BF_
 10
0.0
 20
0.0
 30
0.0
 70
128
 71
481
 72
457
 73
459
 74
479
  0
VERTEX
  8
BF_
 10
0.0
 20
0.0
 30
0.0
 70
128
 71
478
 72
480
 73
482
 74
484
  0
VERTEX
  8
BF_
 10
0.0
 20
0.0
 30
0.0
 70
128
 71
483
 72
481
 73
479
 74
485
  0
VERTEX
  8
BF_
 10
0.0
 20
0.0
 30
0.0
 70
128
 71
484
 72
482
 73
488
 74
486
  0
VERTEX
  8
BF_
 10
0.0
 20
0.0
 30
0.0
 70
128
 71
489
 72
483
 73
485
 74
487
  0
VERTEX
  8
BF_
 10
0.0
 20
0.0
 30
0.0
 70
128
 71
486
 72
488
 73
490
 74
492
  0
VERTEX
  8
BF_
 10
0.0
 20
0.0
 30
0.0
 70
128
 71
491
 72
489
 73
487
 74
493
  0
VERTEX
  8
BF_
 10
0.0
 20
0.0
 30
0.0
 70
128
 71
464
 72
476
 73
486
 74
492
  0
VERTEX
  8
BF_
 10
0.0
 20
0.0
 30
0.0
 70
128
 71
487
 72
477
 73
465
 74
493
  0
VERTEX
  8
BF_
 10
0.0
 20
0.0
 30
0.0
 70
128
 71
452
 72
484
 73
486
 74
476
  0
VERTEX
  8
BF_
 10
0.0
 20
0.0
 30
0.0
 70
128
 71
487
 72
485
 73
453
 74
477
  0
VERTEX
  8
BF_
 10
0.0
 20
0.0
 30
0.0
 70
128
 71
452
 72
462
 73
478
 74
484
  0
VERTEX
  8
BF_
 10
0.0
 20
0.0
 30
0.0
 70
128
 71
479
 72
463
 73
453
 74
485
  0
VERTEX
  8
BF_
 10
0.0
 20
0.0
 30
0.0
 70
128
 71
458
 72
478
 73
462
 74
460
  0
VERTEX
  8
BF_
 10
0.0
 20
0.0
 30
0.0
 70
128
 71
463
 72
479
 73
459
 74
461
  0
VERTEX
  8
BF_
 10
0.0
 20
0.0
 30
0.0
 70
128
 71
454
 72
474
 73
480
 74
456
  0
VERTEX
  8
BF_
 10
0.0
 20
0.0
 30
0.0
 70
128
 71
481
 72
475
 73
455
 74
457
  0
VERTEX
  8
BF_
 10
0.0
 20
0.0
 30
0.0
 70
128
 71
472
 72
482
 73
480
 74
474
  0
VERTEX
  8
BF_
 10
0.0
 20
0.0
 30
0.0
 70
128
 71
481
 72
483
 73
473
 74
475
  0
VERTEX
  8
BF_
 10
0.0
 20
0.0
 30
0.0
 70
128
 71
470
 72
488
 73
482
 74
472
  0
VERTEX
  8
BF_
 10
0.0
 20
0.0
 30
0.0
 70
128
 71
483
 72
489
 73
471
 74
473
  0
VERTEX
  8
BF_
 10
0.0
 20
0.0
 30
0.0
 70
128
 71
468
 72
490
 73
488
 74
470
  0
VERTEX
  8
BF_
 10
0.0
 20
0.0
 30
0.0
 70
128
 71
489
 72
491
 73
469
 74
471
  0
VERTEX
  8
BF_
 10
0.0
 20
0.0
 30
0.0
 70
128
 71
466
 72
492
 73
490
 74
468
  0
VERTEX
  8
BF_
 10
0.0
 20
0.0
 30
0.0
 70
128
 71
491
 72
493
 73
467
 74
469
  0
VERTEX
  8
BF_
 10
0.0
 20
0.0
 30
0.0
 70
128
 71
464
 72
492
 73
466
  0
VERTEX
  8
BF_
 10
0.0
 20
0.0
 30
0.0
 70
128
 71
467
 72
493
 73
465
  0
VERTEX
  8
BF_
 10
0.0
 20
0.0
 30
0.0
 70
128
 71
392
 72
390
 73
504
 74
502
  0
VERTEX
  8
BF_
 10
0.0
 20
0.0
 30
0.0
 70
128
 71
505
 72
391
 73
393
 74
503
  0
VERTEX
  8
BF_
 10
0.0
 20
0.0
 30
0.0
 70
128
 71
394
 72
392
 73
502
 74
500
  0
VERTEX
  8
BF_
 10
0.0
 20
0.0
 30
0.0
 70
128
 71
503
 72
393
 73
395
 74
501
  0
VERTEX
  8
BF_
 10
0.0
 20
0.0
 30
0.0
 70
128
 71
396
 72
394
 73
500
 74
498
  0
VERTEX
  8
BF_
 10
0.0
 20
0.0
 30
0.0
 70
128
 71
501
 72
395
 73
397
 74
499
  0
VERTEX
  8
BF_
 10
0.0
 20
0.0
 30
0.0
 70
128
 71
398
 72
396
 73
498
 74
496
  0
VERTEX
  8
BF_
 10
0.0
 20
0.0
 30
0.0
 70
128
 71
499
 72
397
 73
399
 74
497
  0
VERTEX
  8
BF_
 10
0.0
 20
0.0
 30
0.0
 70
128
 71
400
 72
398
 73
496
 74
494
  0
VERTEX
  8
BF_
 10
0.0
 20
0.0
 30
0.0
 70
128
 71
497
 72
399
 73
401
 74
495
  0
VERTEX
  8
BF_
 10
0.0
 20
0.0
 30
0.0
 70
128
 71
388
 72
400
 73
494
 74
506
  0
VERTEX
  8
BF_
 10
0.0
 20
0.0
 30
0.0
 70
128
 71
495
 72
401
 73
389
 74
507
  0
VERTEX
  8
BF_
 10
0.0
 20
0.0
 30
0.0
 70
128
 71
494
 72
502
 73
504
 74
506
  0
VERTEX
  8
BF_
 10
0.0
 20
0.0
 30
0.0
 70
128
 71
505
 72
503
 73
495
 74
507
  0
VERTEX
  8
BF_
 10
0.0
 20
0.0
 30
0.0
 70
128
 71
494
 72
496
 73
500
 74
502
  0
VERTEX
  8
BF_
 10
0.0
 20
0.0
 30
0.0
 70
128
 71
501
 72
497
 73
495
 74
503
  0
VERTEX
  8
BF_
 10
0.0
 20
0.0
 30
0.0
 70
128
 71
496
 72
498
 73
500
  0
VERTEX
  8
BF_
 10
0.0
 20
0.0
 30
0.0
 70
128
 71
501
 72
499
 73
497
  0
VERTEX
  8
BF_
 10
0.0
 20
0.0
 30
0.0
 70
128
 71
314
 72
382
 73
388
 74
506
  0
VERTEX
  8
BF_
 10
0.0
 20
0.0
 30
0.0
 70
128
 71
389
 72
383
 73
315
 74
507
  0
VERTEX
  8
BF_
 10
0.0
 20
0.0
 30
0.0
 70
128
 71
314
 72
506
 73
504
 74
322
  0
VERTEX
  8
BF_
 10
0.0
 20
0.0
 30
0.0
 70
128
 71
505
 72
507
 73
315
 74
323
  0
VERTEX
  8
BF_
 10
0.0
 20
0.0
 30
0.0
 70
128
 71
320
 72
322
 73
504
 74
390
  0
VERTEX
  8
BF_
 10
0.0
 20
0.0
 30
0.0
 70
128
 71
505
 72
323
 73
321
 74
391
  0
SEQEND
  8
BF_
  0
ENDSEC
  0
EOF
