999
dxflib 2.0.4.8
  0
SECTION
  2
HEADER
  9
$ACADVER
  1
AC1009
  9
$GRIDUNIT
 10
0.1
 20
0.1
  9
$DIMASZ
 40
2.5
  9
$DIMGAP
 40
0.625
  9
$LUNITS
 70
2
  9
$AUPREC
 70
2
  9
$SPLINESEGS
 70
8
  9
$DIMEXO
 40
0.625
  9
$GRIDMODE
 70
1
  9
$DIMTXT
 40
2.5
  9
$LUPREC
 70
4
  9
$DIMSTYLE
  2
Standard
  9
$PLIMMIN
 10
0.0
 20
0.0
  9
$PLIMMAX
 10
210.0
 20
297.0
  9
$DIMEXE
 40
1.25
  9
$AUNITS
 70
0
  0
ENDSEC
  0
SECTION
  2
TABLES
  0
TABLE
  2
VPORT
 70
1
  0
VPORT
  2
*Active
 70
0
 10
0.0
 20
0.0
 11
1.0
 21
1.0
 12
286.3055555555554861
 22
148.5
 13
0.0
 23
0.0
 14
10.0
 24
10.0
 15
10.0
 25
10.0
 16
0.0
 26
0.0
 36
1.0
 17
0.0
 27
0.0
 37
0.0
 40
297.0
 41
1.92798353909465
 42
50.0
 43
0.0
 44
0.0
 50
0.0
 51
0.0
 71
0
 72
100
 73
1
 74
3
 75
1
 76
1
 77
0
 78
0
  0
ENDTAB
  0
TABLE
  2
LTYPE
 70
19
  0
LTYPE
  2
CONTINUOUS
 70
0
  3
Solid line
 72
65
 73
0
 40
0.0
  0
LTYPE
  2
DOT
 70
0
  3
Dot . . . . . . . . . . . . . . . . . . . . . .
 72
65
 73
2
 40
6.3499999999999996
 49
0.0
 49
-6.3499999999999996
  0
LTYPE
  2
DOT2
 70
0
  3
Dot (.5x) .....................................
 72
65
 73
2
 40
3.1749999999999998
 49
0.0
 49
-3.1749999999999998
  0
LTYPE
  2
DOTX2
 70
0
  3
Dot (2x) .  .  .  .  .  .  .  .  .  .  .  .  .
 72
65
 73
2
 40
12.6999999999999993
 49
0.0
 49
-12.6999999999999993
  0
LTYPE
  2
DASHED
 70
0
  3
Dashed __ __ __ __ __ __ __ __ __ __ __ __ __ _
 72
65
 73
2
 40
19.0500000000000007
 49
12.6999999999999993
 49
-6.3499999999999996
  0
LTYPE
  2
DASHED2
 70
0
  3
Dashed (.5x) _ _ _ _ _ _ _ _ _ _ _ _ _ _ _ _ _
 72
65
 73
2
 40
9.5250000000000004
 49
6.3499999999999996
 49
-3.1749999999999998
  0
LTYPE
  2
DASHEDX2
 70
0
  3
Dashed (2x) ____  ____  ____  ____  ____  ___
 72
65
 73
2
 40
38.1000000000000014
 49
25.3999999999999986
 49
-12.6999999999999993
  0
LTYPE
  2
DASHDOT
 70
0
  3
Dash dot __ . __ . __ . __ . __ . __ . __ . __
 72
65
 73
4
 40
25.3999999999999986
 49
12.6999999999999993
 49
-6.3499999999999996
 49
0.0
 49
-6.3499999999999996
  0
LTYPE
  2
DASHDOT2
 70
0
  3
Dash dot (.5x) _._._._._._._._._._._._._._._.
 72
65
 73
4
 40
12.6999999999999993
 49
6.3499999999999996
 49
-3.1749999999999998
 49
0.0
 49
-3.1749999999999998
  0
LTYPE
  2
DASHDOTX2
 70
0
  3
Dash dot (2x) ____  .  ____  .  ____  .  ___
 72
65
 73
4
 40
50.7999999999999972
 49
25.3999999999999986
 49
-12.6999999999999993
 49
0.0
 49
-12.6999999999999993
  0
LTYPE
  2
DIVIDE
 70
0
  3
Divide ____ . . ____ . . ____ . . ____ . . ____
 72
65
 73
6
 40
31.75
 49
12.6999999999999993
 49
-6.3499999999999996
 49
0.0
 49
-6.3499999999999996
 49
0.0
 49
-6.3499999999999996
  0
LTYPE
  2
DIVIDE2
 70
0
  3
Divide (.5x) __..__..__..__..__..__..__..__.._
 72
65
 73
6
 40
15.875
 49
6.3499999999999996
 49
-3.1749999999999998
 49
0.0
 49
-3.1749999999999998
 49
0.0
 49
-3.1749999999999998
  0
LTYPE
  2
DIVIDEX2
 70
0
  3
Divide (2x) ________  .  .  ________  .  .  _
 72
65
 73
6
 40
63.5
 49
25.3999999999999986
 49
-12.6999999999999993
 49
0.0
 49
-12.6999999999999993
 49
0.0
 49
-12.6999999999999993
  0
LTYPE
  2
CENTER
 70
0
  3
Center ____ _ ____ _ ____ _ ____ _ ____ _ ____
 72
65
 73
4
 40
50.7999999999999972
 49
31.75
 49
-6.3499999999999996
 49
6.3499999999999996
 49
-6.3499999999999996
  0
LTYPE
  2
CENTER2
 70
0
  3
Center (.5x) ___ _ ___ _ ___ _ ___ _ ___ _ ___
 72
65
 73
4
 40
28.5749999999999993
 49
19.0500000000000007
 49
-3.1749999999999998
 49
3.1749999999999998
 49
-3.1749999999999998
  0
LTYPE
  2
CENTERX2
 70
0
  3
Center (2x) ________  __  ________  __  _____
 72
65
 73
4
 40
101.5999999999999943
 49
63.5
 49
-12.6999999999999993
 49
12.6999999999999993
 49
-12.6999999999999993
  0
LTYPE
  2
BORDER
 70
0
  3
Border __ __ . __ __ . __ __ . __ __ . __ __ .
 72
65
 73
6
 40
44.4500000000000028
 49
12.6999999999999993
 49
-6.3499999999999996
 49
12.6999999999999993
 49
-6.3499999999999996
 49
0.0
 49
-6.3499999999999996
  0
LTYPE
  2
BORDER2
 70
0
  3
Border (.5x) __.__.__.__.__.__.__.__.__.__.__.
 72
65
 73
6
 40
22.2250000000000014
 49
6.3499999999999996
 49
-3.1749999999999998
 49
6.3499999999999996
 49
-3.1749999999999998
 49
0.0
 49
-3.1749999999999998
  0
LTYPE
  2
BORDERX2
 70
0
  3
Border (2x) ____  ____  .  ____  ____  .  ___
 72
65
 73
6
 40
88.9000000000000057
 49
25.3999999999999986
 49
-12.6999999999999993
 49
25.3999999999999986
 49
-12.6999999999999993
 49
0.0
 49
-12.6999999999999993
  0
ENDTAB
  0
TABLE
  2
LAYER
 70
1
  0
LAYER
  2
0
 70
0
 62
7
  6
CONTINUOUS
  0
ENDTAB
  0
TABLE
  2
STYLE
 70
1
  0
STYLE
  2
Standard
 70
0
 40
0.0
 41
0.75
 50
0.0
 71
0
 42
2.5
  3
txt
  4

  0
ENDTAB
  0
TABLE
  2
VIEW
 70
0
  0
ENDTAB
  0
TABLE
  2
UCS
 70
0
  0
ENDTAB
  0
TABLE
  2
APPID
 70
1
  0
APPID
  2
ACAD
 70
0
  0
ENDTAB
  0
TABLE
  2
DIMSTYLE
 70
1
  0
DIMSTYLE
  2
Standard
  3

  4

  5

  6

  7

 40
1.0
 41
2.5
 42
0.625
 43
3.75
 44
1.25
 45
0.0
 46
0.0
 47
0.0
 48
0.0
 70
0
 71
0
 72
0
 73
0
 74
0
 75
0
 76
0
 77
1
 78
8
140
2.5
141
2.5
142
0.0
143
0.03937007874016
144
1.0
145
0.0
146
1.0
147
0.625
170
0
171
3
172
1
173
0
174
0
175
0
176
0
177
0
178
0
  0
ENDTAB
  0
ENDSEC
  0
SECTION
  2
BLOCKS
  0
ENDSEC
  0
SECTION
  2
ENTITIES
  0
LINE
  8
0
 10
0.0
 20
0.0
 30
0.0
 11
320.0
 21
0.0
 31
0.0
  0
LINE
  8
0
 10
320.0
 20
0.0
 30
0.0
 11
320.0
 21
240.0
 31
0.0
  0
LINE
  8
0
 10
320.0
 20
240.0
 30
0.0
 11
0.0
 21
240.0
 31
0.0
  0
LINE
  8
0
 10
0.0
 20
240.0
 30
0.0
 11
0.0
 21
0.0
 31
0.0
  0
LINE
  8
0
 10
0.0
 20
240.0
 30
0.0
 11
0.0
 21
240.0
 31
0.0
  0
LINE
  8
0
 10
0.0
 20
240.0
 30
0.0
 11
0.0
 21
0.0
 31
0.0
  0
LINE
  8
0
 10
0.0
 20
0.0
 30
0.0
 11
0.0
 21
0.0
 31
0.0
  0
LINE
  8
0
 10
0.0
 20
0.0
 30
0.0
 11
0.0
 21
240.0
 31
0.0
  0
LINE
  8
0
 10
0.0
 20
130.0
 30
0.0
 11
0.0
 21
130.0
 31
0.0
  0
ARC
  8
0
 10
155.7608870319781147
 20
100.633135143821292
 30
0.0
 40
75.6353071849466119
 50
42.6081075247433319
 51
148.2725565372676897
  0
CIRCLE
  8
0
 10
51.4285714285714235
 20
198.3673469387754835
 30
0.0
 40
23.1036272621794438
  0
TEXT
  8
0
 10
67.7551020408163254
 20
67.7551020408163254
 30
0.0
 40
3.5
  1
This\~is\~an\~example.
 50
0.0
 41
1.0
  7
normallatin1
 71
0
 72
0
 11
67.7551020408163254
 21
67.7551020408163254
 31
0.0
 73
3
  0
LINE
  8
0
 10
91.4285714285714164
 20
115.9183673469387656
 30
0.0
 11
210.6122448979591582
 21
115.9183673469387656
 31
0.0
  0
LINE
  8
0
 10
91.4285714285714164
 20
115.9183673469387656
 30
0.0
 11
93.9285714285714164
 21
116.3346520047116002
 31
0.0
  0
LINE
  8
0
 10
93.9285714285714164
 20
116.3346520047116002
 30
0.0
 11
93.9285714285714164
 21
115.5020826891659311
 31
0.0
  0
LINE
  8
0
 10
93.9285714285714164
 20
115.5020826891659311
 30
0.0
 11
91.4285714285714164
 21
115.9183673469387656
 31
0.0
  0
LINE
  8
0
 10
210.6122448979591582
 20
115.9183673469387656
 30
0.0
 11
208.1122448979591582
 21
115.5020826891659311
 31
0.0
  0
LINE
  8
0
 10
208.1122448979591582
 20
115.5020826891659311
 30
0.0
 11
208.1122448979591582
 21
116.3346520047116002
 31
0.0
  0
LINE
  8
0
 10
208.1122448979591582
 20
116.3346520047116002
 30
0.0
 11
210.6122448979591582
 21
115.9183673469387656
 31
0.0
  0
TEXT
  8
0
 10
151.0204081632653015
 20
117.7933673469387656
 30
0.0
 40
2.5
  1
119.1837
 50
0.0
 41
1.0
  7
standard
 71
0
 72
1
 11
151.0204081632653015
 21
117.7933673469387656
 31
0.0
 73
2
  0
LINE
  8
0
 10
91.4285714285714164
 20
139.7831632653061149
 30
0.0
 11
91.4285714285714164
 21
114.6683673469387656
 31
0.0
  0
LINE
  8
0
 10
210.6122448979591582
 20
152.0280612244897895
 30
0.0
 11
210.6122448979591582
 21
114.6683673469387656
 31
0.0
  0
LINE
  8
0
 10
29.9773920407366035
 20
189.7868751836415129
 30
0.0
 11
72.8797508164062435
 21
206.9478186939094542
 31
0.0
  0
LINE
  8
0
 10
29.9773920407366035
 20
189.7868751836415129
 30
0.0
 11
32.1439795273436602
 21
191.1018624760420153
 31
0.0
  0
LINE
  8
0
 10
32.1439795273436602
 20
191.1018624760420153
 30
0.0
 11
32.4531880085558413
 21
190.328841273011534
 31
0.0
  0
LINE
  8
0
 10
32.4531880085558413
 20
190.328841273011534
 30
0.0
 11
29.9773920407366035
 21
189.7868751836415129
 31
0.0
  0
LINE
  8
0
 10
72.8797508164062435
 20
206.9478186939094542
 30
0.0
 11
70.7131633297991868
 21
205.6328314015089518
 31
0.0
  0
LINE
  8
0
 10
70.7131633297991868
 20
205.6328314015089518
 30
0.0
 11
70.4039548485870057
 21
206.4058526045394331
 31
0.0
  0
LINE
  8
0
 10
70.4039548485870057
 20
206.4058526045394331
 30
0.0
 11
72.8797508164062435
 21
206.9478186939094542
 31
0.0
  0
TEXT
  8
0
 10
50.7322139104074736
 20
200.1082407341853298
 30
0.0
 40
2.5
  1
46.2073
 50
21.8014094863519006
 41
1.0
  7
standard
 71
0
 72
1
 11
50.7322139104074736
 21
200.1082407341853298
 31
0.0
 73
2
  0
ENDSEC
  0
EOF
